<svg xmlns="http://www.w3.org/2000/svg" version="1.1" width="253px" height="325px" style="shape-rendering:geometricPrecision; text-rendering:geometricPrecision; image-rendering:optimizeQuality; fill-rule:evenodd; clip-rule:evenodd" xmlns:xlink="http://www.w3.org/1999/xlink">
<g><path style="opacity:0.008" fill="#fefffe" d="M 115.5,-0.5 C 116.833,-0.5 118.167,-0.5 119.5,-0.5C 119.5,-0.166667 119.5,0.166667 119.5,0.5C 117.901,0.767809 116.568,0.434475 115.5,-0.5 Z"/></g>
<g><path style="opacity:0.004" fill="#fefffe" d="M 119.5,0.5 C 120.167,0.5 120.5,0.833333 120.5,1.5C 120.167,1.16667 119.833,0.833333 119.5,0.5 Z"/></g>
<g><path style="opacity:0.94" fill="#fefefe" d="M 119.5,1.5 C 121.238,9.73598 122.238,18.0693 122.5,26.5C 121.662,26.8417 121.328,27.5084 121.5,28.5C 120.325,28.719 119.325,28.3857 118.5,27.5C 118.024,24.2071 117.024,21.2071 115.5,18.5C 115.737,17.209 115.404,16.209 114.5,15.5C 113.833,14.1667 113.167,14.1667 112.5,15.5C 111.508,15.3284 110.842,15.6618 110.5,16.5C 108.5,16.5 107.5,17.5 107.5,19.5C 104.833,23.5 104.833,27.5 107.5,31.5C 108.042,34.9122 109.375,37.9122 111.5,40.5C 111.427,42.0269 112.094,43.0269 113.5,43.5C 114.802,45.8218 116.802,47.1551 119.5,47.5C 120.209,48.404 121.209,48.7373 122.5,48.5C 129.362,50.0719 136.362,51.4053 143.5,52.5C 143.427,54.0269 144.094,55.0269 145.5,55.5C 146.206,53.6945 145.873,51.8612 144.5,50C 149.721,43.0459 155.055,36.2126 160.5,29.5C 161.906,29.0269 162.573,28.0269 162.5,26.5C 164.5,25.1667 166.167,23.5 167.5,21.5C 169.262,20.7377 170.262,19.4044 170.5,17.5C 173.5,15.1667 176.167,12.5 178.5,9.5C 180.404,9.26242 181.738,8.26242 182.5,6.5C 183.289,6.21719 183.956,5.71719 184.5,5C 189.155,4.50085 193.821,4.33418 198.5,4.5C 200.265,5.46138 202.265,5.79472 204.5,5.5C 209.256,7.11791 214.256,8.11791 219.5,8.5C 222.219,9.91301 225.219,10.5797 228.5,10.5C 231.642,11.7903 234.975,12.7903 238.5,13.5C 240.781,16.5457 241.115,19.879 239.5,23.5C 238.662,23.8417 238.328,24.5084 238.5,25.5C 237.596,26.209 237.263,27.209 237.5,28.5C 236.596,29.209 236.263,30.209 236.5,31.5C 234.48,36.7502 233.147,42.2502 232.5,48C 237.02,48.8136 241.354,48.647 245.5,47.5C 246.429,46.0639 247.595,44.7305 249,43.5C 250.415,46.9582 250.915,50.6249 250.5,54.5C 249.662,54.8417 249.328,55.5084 249.5,56.5C 248.833,56.5 248.5,56.8333 248.5,57.5C 247.833,57.5 247.5,57.8333 247.5,58.5C 246.833,58.5 246.5,58.8333 246.5,59.5C 245.508,59.3284 244.842,59.6618 244.5,60.5C 243.209,60.2627 242.209,60.596 241.5,61.5C 236.256,61.8821 231.256,62.8821 226.5,64.5C 224.585,64.2155 222.919,64.5489 221.5,65.5C 220.833,65.5 220.167,65.5 219.5,65.5C 219.167,64.5 218.5,63.8333 217.5,63.5C 217.737,62.209 217.404,61.209 216.5,60.5C 216.435,57.5718 215.768,54.9052 214.5,52.5C 214.784,50.5853 214.451,48.9187 213.5,47.5C 213.784,45.5853 213.451,43.9187 212.5,42.5C 212.5,42.1667 212.5,41.8333 212.5,41.5C 211.833,41.5 211.5,41.8333 211.5,42.5C 210.662,42.8417 210.328,43.5084 210.5,44.5C 209.662,44.8417 209.328,45.5084 209.5,46.5C 207.461,47.911 206.461,49.911 206.5,52.5C 205.662,52.8417 205.328,53.5084 205.5,54.5C 204.596,55.209 204.263,56.209 204.5,57.5C 203.662,57.8417 203.328,58.5084 203.5,59.5C 202.596,60.209 202.263,61.209 202.5,62.5C 200.194,66.0845 198.861,70.0845 198.5,74.5C 197.087,77.3823 196.421,80.5489 196.5,84C 196.354,88.2549 197.354,92.0882 199.5,95.5C 199.461,98.089 200.461,100.089 202.5,101.5C 202.66,103.153 203.326,104.486 204.5,105.5C 204.427,107.027 205.094,108.027 206.5,108.5C 206.427,110.027 207.094,111.027 208.5,111.5C 209.512,112.872 210.512,114.205 211.5,115.5C 211.5,116.167 211.833,116.5 212.5,116.5C 212.842,117.338 213.508,117.672 214.5,117.5C 220.279,119.109 226.279,119.609 232.5,119C 234.137,115.715 234.804,112.215 234.5,108.5C 233.209,108.263 232.209,108.596 231.5,109.5C 230.209,109.263 229.209,109.596 228.5,110.5C 227.508,110.328 226.842,110.662 226.5,111.5C 225.508,111.328 224.842,111.662 224.5,112.5C 223.508,112.328 222.842,112.662 222.5,113.5C 219.981,111.641 219.981,109.641 222.5,107.5C 224.027,107.573 225.027,106.906 225.5,105.5C 230.543,102.985 235.21,99.985 239.5,96.5C 240.959,96.5674 242.292,96.2341 243.5,95.5C 244.659,96.7403 245.659,98.0736 246.5,99.5C 246.5,107.167 246.5,114.833 246.5,122.5C 245.463,123.93 244.796,125.597 244.5,127.5C 243.5,127.833 242.833,128.5 242.5,129.5C 240.973,129.427 239.973,130.094 239.5,131.5C 238.508,131.328 237.842,131.662 237.5,132.5C 235.447,132.402 233.78,133.069 232.5,134.5C 231.209,134.263 230.209,134.596 229.5,135.5C 224.527,136.164 219.527,136.497 214.5,136.5C 213.432,135.566 212.099,135.232 210.5,135.5C 202.936,130.278 195.936,124.278 189.5,117.5C 189.5,116.833 189.167,116.5 188.5,116.5C 180.95,108.885 171.95,103.552 161.5,100.5C 160.791,99.596 159.791,99.2627 158.5,99.5C 148.964,95.656 138.964,93.3227 128.5,92.5C 125.091,91.0966 121.425,90.4299 117.5,90.5C 116.432,89.5655 115.099,89.2322 113.5,89.5C 110.568,85.2979 107.902,80.9646 105.5,76.5C 105.737,75.209 105.404,74.209 104.5,73.5C 103.736,70.9823 102.736,68.649 101.5,66.5C 101.065,63.8427 100.065,61.5093 98.5,59.5C 98.2041,57.597 97.5375,55.9303 96.5,54.5C 96.5979,52.4471 95.9313,50.7804 94.5,49.5C 90.4547,37.8061 90.6213,26.1394 95,14.5C 101.856,7.65562 110.023,3.32229 119.5,1.5 Z M 182.5,6.5 C 181.738,8.26242 180.404,9.26242 178.5,9.5C 179.262,7.73758 180.596,6.73758 182.5,6.5 Z M 110.5,16.5 C 109.833,17.8333 108.833,18.8333 107.5,19.5C 107.5,17.5 108.5,16.5 110.5,16.5 Z M 170.5,17.5 C 170.262,19.4044 169.262,20.7377 167.5,21.5C 167.738,19.5956 168.738,18.2623 170.5,17.5 Z M 162.5,26.5 C 162.573,28.0269 161.906,29.0269 160.5,29.5C 160.427,27.9731 161.094,26.9731 162.5,26.5 Z M 219.5,35.5 C 217.761,38.2427 215.427,40.2427 212.5,41.5C 214.239,38.7573 216.573,36.7573 219.5,35.5 Z M 111.5,40.5 C 112.906,40.9731 113.573,41.9731 113.5,43.5C 112.094,43.0269 111.427,42.0269 111.5,40.5 Z M 145.5,55.5 C 146.492,55.3284 147.158,55.6618 147.5,56.5C 146.833,56.5 146.5,56.8333 146.5,57.5C 145.662,57.1583 145.328,56.4916 145.5,55.5 Z M 147.5,56.5 C 148.401,57.2905 149.068,58.2905 149.5,59.5C 148.833,59.5 148.5,59.8333 148.5,60.5C 147.599,59.7095 146.932,58.7095 146.5,57.5C 147.167,57.5 147.5,57.1667 147.5,56.5 Z M 149.5,59.5 C 150.401,60.2905 151.068,61.2905 151.5,62.5C 150.833,62.5 150.5,62.8333 150.5,63.5C 149.599,62.7095 148.932,61.7095 148.5,60.5C 149.167,60.5 149.5,60.1667 149.5,59.5 Z M 152.5,65.5 C 155.455,67.1223 158.122,69.1223 160.5,71.5C 159.833,71.5 159.5,71.8333 159.5,72.5C 156.833,70.5 154.5,68.1667 152.5,65.5 Z M 160.5,71.5 C 162.54,73.177 164.54,74.8437 166.5,76.5C 163.669,75.9213 161.336,74.588 159.5,72.5C 160.167,72.5 160.5,72.1667 160.5,71.5 Z M 180.5,73.5 C 180.842,72.6618 181.508,72.3284 182.5,72.5C 183.167,73.1667 183.833,73.8333 184.5,74.5C 181.913,75.6485 180.913,77.3152 181.5,79.5C 181.401,82.2372 181.735,84.9039 182.5,87.5C 183.833,88.1667 184.833,89.1667 185.5,90.5C 183.883,89.962 182.216,89.6287 180.5,89.5C 179.496,88.3172 178.662,86.9839 178,85.5C 177.536,86.0944 177.369,86.7611 177.5,87.5C 176.06,86.0539 175.393,84.2206 175.5,82C 175.514,80.6153 175.848,79.4486 176.5,78.5C 176.328,77.5084 176.662,76.8417 177.5,76.5C 177.833,77.8333 178.167,77.8333 178.5,76.5C 179.5,76.1667 180.167,75.5 180.5,74.5C 181.833,74.1667 181.833,73.8333 180.5,73.5 Z M 185.5,90.5 C 186.473,90.9867 187.473,91.4867 188.5,92C 186.288,92.7891 184.288,92.6225 182.5,91.5C 183.791,91.7373 184.791,91.404 185.5,90.5 Z M 225.5,105.5 C 225.027,106.906 224.027,107.573 222.5,107.5C 222.973,106.094 223.973,105.427 225.5,105.5 Z M 206.5,108.5 C 207.906,108.973 208.573,109.973 208.5,111.5C 207.094,111.027 206.427,110.027 206.5,108.5 Z"/></g>
<g><path style="opacity:0.008" fill="#fefffe" d="M 120.5,1.5 C 121.525,1.89657 121.692,2.56323 121,3.5C 120.536,2.90558 120.369,2.23891 120.5,1.5 Z"/></g>
<g><path style="opacity:0.012" fill="#fefffe" d="M 108.5,2.5 C 109.833,3.16667 109.833,3.16667 108.5,2.5 Z"/></g>
<g><path style="opacity:0.01" fill="#fefffe" d="M 185.5,3.5 C 189.311,2.35472 193.311,2.18806 197.5,3C 193.514,3.49885 189.514,3.66551 185.5,3.5 Z"/></g>
<g><path style="opacity:0.012" fill="#fefffe" d="M 106.5,3.5 C 107.833,4.16667 107.833,4.16667 106.5,3.5 Z"/></g>
<g><path style="opacity:0.009" fill="#fefffe" d="M 198.5,4.5 C 199.946,3.38705 201.613,3.22039 203.5,4C 201.866,4.49351 200.199,4.66018 198.5,4.5 Z"/></g>
<g><path style="opacity:0.009" fill="#fefffe" d="M 204.5,5.5 C 205.601,4.40168 206.934,4.23502 208.5,5C 207.207,5.49001 205.873,5.65668 204.5,5.5 Z"/></g>
<g><path style="opacity:0.01" fill="#fefffe" d="M 121.5,5.5 C 122.573,6.25057 122.74,7.25057 122,8.5C 121.517,7.55198 121.351,6.55198 121.5,5.5 Z"/></g>
<g><path style="opacity:0.009" fill="#fefffe" d="M 210.5,6.5 C 211.251,5.42654 212.251,5.25988 213.5,6C 212.552,6.48278 211.552,6.64945 210.5,6.5 Z"/></g>
<g><path style="opacity:0.008" fill="#fefffe" d="M 101.5,6.5 C 102.833,7.16667 102.833,7.16667 101.5,6.5 Z"/></g>
<g><path style="opacity:0.01" fill="#fefffe" d="M 215.5,7.5 C 216.251,6.42654 217.251,6.25988 218.5,7C 217.552,7.48278 216.552,7.64945 215.5,7.5 Z"/></g>
<g><path style="opacity:0.008" fill="#fefffe" d="M 219.5,8.5 C 220.601,7.40168 221.934,7.23502 223.5,8C 222.207,8.49001 220.873,8.65668 219.5,8.5 Z"/></g>
<g><path style="opacity:0.01" fill="#fefffe" d="M 224.5,9.5 C 225.251,8.42654 226.251,8.25988 227.5,9C 226.552,9.48278 225.552,9.64945 224.5,9.5 Z"/></g>
<g><path style="opacity:0.008" fill="#fefffe" d="M 228.5,10.5 C 229.601,9.40168 230.934,9.23502 232.5,10C 231.207,10.49 229.873,10.6567 228.5,10.5 Z"/></g>
<g><path style="opacity:0.01" fill="#fefffe" d="M 122.5,10.5 C 123.622,12.2884 123.789,14.2884 123,16.5C 122.505,14.5273 122.338,12.5273 122.5,10.5 Z"/></g>
<g><path style="opacity:0.009" fill="#fefffe" d="M 233.5,11.5 C 234.251,10.4265 235.251,10.2599 236.5,11C 235.552,11.4828 234.552,11.6495 233.5,11.5 Z"/></g>
<g><path style="opacity:0.012" fill="#fefffe" d="M 238.5,12.5 C 237.833,11.1667 237.833,11.1667 238.5,12.5 Z"/></g>
<g><path style="opacity:0.004" fill="#fefffe" d="M 238.5,12.5 C 239.833,13.1667 239.833,13.1667 238.5,12.5 Z"/></g>
<g><path style="opacity:0.012" fill="#fefffe" d="M 92.5,15.5 C 93.525,15.8966 93.6917,16.5632 93,17.5C 92.5357,16.9056 92.369,16.2389 92.5,15.5 Z"/></g>
<g><path style="opacity:0.01" fill="#fefffe" d="M 112.5,15.5 C 113.167,15.5 113.833,15.5 114.5,15.5C 114.214,17.9327 113.548,17.9327 112.5,15.5 Z"/></g>
<g><path style="opacity:0.008" fill="#fefffe" d="M 241.5,15.5 C 242.613,16.9464 242.78,18.6131 242,20.5C 241.506,18.8659 241.34,17.1992 241.5,15.5 Z"/></g>
<g><path style="opacity:0.009" fill="#fefffe" d="M 91.5,18.5 C 92.5735,19.2506 92.7401,20.2506 92,21.5C 91.5172,20.552 91.3505,19.552 91.5,18.5 Z"/></g>
<g><path style="opacity:0.01" fill="#fefffe" d="M 115.5,18.5 C 115.631,19.2389 115.464,19.9056 115,20.5C 114.308,19.5632 114.475,18.8966 115.5,18.5 Z"/></g>
<g><path style="opacity:0.009" fill="#fefffe" d="M 115.5,21.5 C 116.573,22.2506 116.74,23.2506 116,24.5C 115.517,23.552 115.351,22.552 115.5,21.5 Z"/></g>
<g><path style="opacity:0.012" fill="#fefffe" d="M 240.5,21.5 C 241.833,22.1667 241.833,22.1667 240.5,21.5 Z"/></g>
<g><path style="opacity:0.01" fill="#fefffe" d="M 90.5,22.5 C 91.5983,23.6009 91.765,24.9343 91,26.5C 90.51,25.2068 90.3433,23.8734 90.5,22.5 Z"/></g>
<g><path style="opacity:0.008" fill="#fefffe" d="M 239.5,23.5 C 240.833,24.1667 240.833,24.8333 239.5,25.5C 239.5,24.8333 239.5,24.1667 239.5,23.5 Z"/></g>
<g><path style="opacity:0.01" fill="#fefffe" d="M 238.5,25.5 C 238.833,25.5 239.167,25.5 239.5,25.5C 239.167,28.1667 238.833,28.1667 238.5,25.5 Z"/></g>
<g><path style="opacity:0.004" fill="#fefffe" d="M 122.5,26.5 C 123.833,27.1667 123.833,27.8333 122.5,28.5C 122.5,27.8333 122.5,27.1667 122.5,26.5 Z"/></g>
<g><path style="opacity:0.009" fill="#fefffe" d="M 107.5,31.5 C 107.351,30.448 107.517,29.448 108,28.5C 108.74,29.7494 108.573,30.7494 107.5,31.5 Z"/></g>
<g><path style="opacity:0.004" fill="#fefffe" d="M 121.5,28.5 C 121.833,28.5 122.167,28.5 122.5,28.5C 122.315,29.1701 121.981,29.1701 121.5,28.5 Z"/></g>
<g><path style="opacity:0.01" fill="#fefffe" d="M 237.5,28.5 C 238.525,28.8966 238.692,29.5632 238,30.5C 237.536,29.9056 237.369,29.2389 237.5,28.5 Z"/></g>
<g><path style="opacity:0.006" fill="#fefffe" d="M 89.5,29.5 C 90.6341,31.9664 90.8007,34.633 90,37.5C 89.5026,34.854 89.3359,32.1873 89.5,29.5 Z"/></g>
<g><path style="opacity:0.009" fill="#fefffe" d="M 121.5,29.5 C 120.749,30.5735 119.749,30.7401 118.5,30C 119.448,29.5172 120.448,29.3505 121.5,29.5 Z"/></g>
<g><path style="opacity:0.008" fill="#fefffe" d="M 236.5,31.5 C 237.573,32.2506 237.74,33.2506 237,34.5C 236.517,33.552 236.351,32.552 236.5,31.5 Z"/></g>
<g><path style="opacity:0.009" fill="#fefffe" d="M 235.5,35.5 C 236.573,36.2506 236.74,37.2506 236,38.5C 235.517,37.552 235.351,36.552 235.5,35.5 Z"/></g>
<g><path style="opacity:0.008" fill="#fefffe" d="M 150.5,38.5 C 151.833,39.1667 151.833,39.1667 150.5,38.5 Z"/></g>
<g><path style="opacity:0.01" fill="#fefffe" d="M 90.5,39.5 C 91.5735,40.2506 91.7401,41.2506 91,42.5C 90.5172,41.552 90.3505,40.552 90.5,39.5 Z"/></g>
<g><path style="opacity:0.01" fill="#fefffe" d="M 234.5,40.5 C 235.613,41.9464 235.78,43.6131 235,45.5C 234.506,43.8659 234.34,42.1992 234.5,40.5 Z"/></g>
<g><path style="opacity:0.013" fill="#fefffe" d="M 211.5,42.5 C 211.833,42.5 212.167,42.5 212.5,42.5C 212.657,43.8734 212.49,45.2068 212,46.5C 211.283,45.9558 210.783,45.2891 210.5,44.5C 211.338,44.1583 211.672,43.4916 211.5,42.5 Z"/></g>
<g><path style="opacity:0.008" fill="#fefffe" d="M 252.5,44.5 C 252.5,44.8333 252.5,45.1667 252.5,45.5C 251.83,45.0187 251.83,44.6853 252.5,44.5 Z"/></g>
<g><path style="opacity:0.011" fill="#fefffe" d="M 245.5,47.5 C 241.818,47.6653 238.152,47.4986 234.5,47C 238.089,46.7931 241.589,46.2931 245,45.5C 245.464,46.0944 245.631,46.7611 245.5,47.5 Z"/></g>
<g><path style="opacity:0.01" fill="#fefffe" d="M 119.5,47.5 C 119.897,46.475 120.563,46.3083 121.5,47C 120.906,47.4643 120.239,47.631 119.5,47.5 Z"/></g>
<g><path style="opacity:0.012" fill="#fefffe" d="M 209.5,46.5 C 210.833,47.1667 210.833,47.1667 209.5,46.5 Z"/></g>
<g><path style="opacity:0.009" fill="#fefffe" d="M 122.5,48.5 C 123.601,47.4017 124.934,47.235 126.5,48C 125.207,48.49 123.873,48.6567 122.5,48.5 Z"/></g>
<g><path style="opacity:0.009" fill="#fefffe" d="M 213.5,47.5 C 213.657,48.8734 213.49,50.2068 213,51.5C 212.235,49.9343 212.402,48.6009 213.5,47.5 Z"/></g>
<g><path style="opacity:0.01" fill="#fefffe" d="M 128.5,49.5 C 130.288,48.3775 132.288,48.2109 134.5,49C 132.527,49.4955 130.527,49.6621 128.5,49.5 Z"/></g>
<g><path style="opacity:0.012" fill="#fefffe" d="M 208.5,48.5 C 209.833,49.1667 209.833,49.1667 208.5,48.5 Z"/></g>
<g><path style="opacity:0.01" fill="#fefffe" d="M 94.5,49.5 C 94.631,50.2389 94.4643,50.9056 94,51.5C 93.3083,50.5632 93.475,49.8966 94.5,49.5 Z"/></g>
<g><path style="opacity:0.01" fill="#fefffe" d="M 136.5,50.5 C 138.288,49.3775 140.288,49.2109 142.5,50C 140.527,50.4955 138.527,50.6621 136.5,50.5 Z"/></g>
<g><path style="opacity:0.012" fill="#fefffe" d="M 207.5,50.5 C 208.833,51.1667 208.833,51.1667 207.5,50.5 Z"/></g>
<g><path style="opacity:0.02" fill="#fefffe" d="M 143.5,51.5 C 144.833,52.1667 144.833,52.1667 143.5,51.5 Z"/></g>
<g><path style="opacity:0.008" fill="#fefffe" d="M 252.5,51.5 C 252.5,52.5 252.5,53.5 252.5,54.5C 252.167,54.5 251.833,54.5 251.5,54.5C 251.263,53.209 251.596,52.209 252.5,51.5 Z"/></g>
<g><path style="opacity:0.008" fill="#fefffe" d="M 95.5,54.5 C 94.475,54.1034 94.3083,53.4368 95,52.5C 95.4643,53.0944 95.631,53.7611 95.5,54.5 Z"/></g>
<g><path style="opacity:0.008" fill="#fefffe" d="M 206.5,52.5 C 207.833,53.1667 207.833,53.8333 206.5,54.5C 206.5,53.8333 206.5,53.1667 206.5,52.5 Z"/></g>
<g><path style="opacity:0.008" fill="#fefffe" d="M 214.5,52.5 C 214.657,53.8734 214.49,55.2068 214,56.5C 213.235,54.9343 213.402,53.6009 214.5,52.5 Z"/></g>
<g><path style="opacity:0.01" fill="#fefffe" d="M 95.5,54.5 C 95.8333,54.5 96.1667,54.5 96.5,54.5C 96.1667,57.1667 95.8333,57.1667 95.5,54.5 Z"/></g>
<g><path style="opacity:0.01" fill="#fefffe" d="M 205.5,54.5 C 205.833,54.5 206.167,54.5 206.5,54.5C 206.167,57.1667 205.833,57.1667 205.5,54.5 Z"/></g>
<g><path style="opacity:0.006" fill="#fefffe" d="M 250.5,54.5 C 250.833,54.5 251.167,54.5 251.5,54.5C 251.672,55.4916 251.338,56.1583 250.5,56.5C 250.5,55.8333 250.5,55.1667 250.5,54.5 Z"/></g>
<g><path style="opacity:0.012" fill="#fefffe" d="M 249.5,56.5 C 249.833,56.5 250.167,56.5 250.5,56.5C 250.315,57.1701 249.981,57.1701 249.5,56.5 Z"/></g>
<g><path style="opacity:0.008" fill="#fefffe" d="M 204.5,57.5 C 205.833,58.1667 205.833,58.8333 204.5,59.5C 204.5,58.8333 204.5,58.1667 204.5,57.5 Z"/></g>
<g><path style="opacity:0.009" fill="#fefffe" d="M 215.5,60.5 C 214.427,59.7494 214.26,58.7494 215,57.5C 215.483,58.448 215.649,59.448 215.5,60.5 Z"/></g>
<g><path style="opacity:0.012" fill="#fefffe" d="M 248.5,57.5 C 248.833,57.5 249.167,57.5 249.5,57.5C 249.315,58.1701 248.981,58.1701 248.5,57.5 Z"/></g>
<g><path style="opacity:0.012" fill="#fefffe" d="M 247.5,58.5 C 247.833,58.5 248.167,58.5 248.5,58.5C 248.315,59.1701 247.981,59.1701 247.5,58.5 Z"/></g>
<g><path style="opacity:0.01" fill="#fefffe" d="M 98.5,59.5 C 98.631,60.2389 98.4643,60.9056 98,61.5C 97.3083,60.5632 97.475,59.8966 98.5,59.5 Z"/></g>
<g><path style="opacity:0.008" fill="#fefffe" d="M 203.5,59.5 C 203.833,59.5 204.167,59.5 204.5,59.5C 204.167,62.1667 203.833,62.1667 203.5,59.5 Z"/></g>
<g><path style="opacity:0.008" fill="#fefffe" d="M 246.5,59.5 C 246.833,59.5 247.167,59.5 247.5,59.5C 247.315,60.1701 246.981,60.1701 246.5,59.5 Z"/></g>
<g><path style="opacity:0.01" fill="#fefffe" d="M 215.5,60.5 C 215.833,60.5 216.167,60.5 216.5,60.5C 216.167,63.1667 215.833,63.1667 215.5,60.5 Z"/></g>
<g><path style="opacity:0.012" fill="#fefffe" d="M 244.5,60.5 C 245.833,61.1667 245.833,61.1667 244.5,60.5 Z"/></g>
<g><path style="opacity:0.008" fill="#fefffe" d="M 241.5,61.5 C 242.5,61.5 243.5,61.5 244.5,61.5C 243.5,62.8333 242.5,62.8333 241.5,61.5 Z"/></g>
<g><path style="opacity:0.008" fill="#fefffe" d="M 98.5,62.5 C 99.525,62.8966 99.6917,63.5632 99,64.5C 98.5357,63.9056 98.369,63.2389 98.5,62.5 Z"/></g>
<g><path style="opacity:0.01" fill="#fefffe" d="M 202.5,62.5 C 203.525,62.8966 203.692,63.5632 203,64.5C 202.536,63.9056 202.369,63.2389 202.5,62.5 Z"/></g>
<g><path style="opacity:0.009" fill="#fefffe" d="M 237.5,63.5 C 238.251,62.4265 239.251,62.2599 240.5,63C 239.552,63.4828 238.552,63.6495 237.5,63.5 Z"/></g>
<g><path style="opacity:0.008" fill="#fefffe" d="M 217.5,63.5 C 216.833,64.1667 216.833,64.1667 217.5,63.5 Z"/></g>
<g><path style="opacity:0.01" fill="#fefffe" d="M 232.5,64.5 C 233.251,63.4265 234.251,63.2599 235.5,64C 234.552,64.4828 233.552,64.6495 232.5,64.5 Z"/></g>
<g><path style="opacity:0.009" fill="#fefffe" d="M 226.5,64.5 C 227.873,64.3433 229.207,64.51 230.5,65C 228.934,65.765 227.601,65.5983 226.5,64.5 Z"/></g>
<g><path style="opacity:0.01" fill="#fefffe" d="M 201.5,65.5 C 202.525,65.8966 202.692,66.5632 202,67.5C 201.536,66.9056 201.369,66.2389 201.5,65.5 Z"/></g>
<g><path style="opacity:0.004" fill="#fefffe" d="M 219.5,65.5 C 218.833,66.1667 218.833,66.1667 219.5,65.5 Z"/></g>
<g><path style="opacity:0.009" fill="#fefffe" d="M 221.5,65.5 C 222.873,65.3433 224.207,65.51 225.5,66C 223.934,66.765 222.601,66.5983 221.5,65.5 Z"/></g>
<g><path style="opacity:0.008" fill="#fefffe" d="M 101.5,66.5 C 101.631,67.2389 101.464,67.9056 101,68.5C 100.308,67.5632 100.475,66.8966 101.5,66.5 Z"/></g>
<g><path style="opacity:0.01" fill="#fefffe" d="M 200.5,68.5 C 201.525,68.8966 201.692,69.5632 201,70.5C 200.536,69.9056 200.369,69.2389 200.5,68.5 Z"/></g>
<g><path style="opacity:0.01" fill="#fefffe" d="M 199.5,71.5 C 200.525,71.8966 200.692,72.5632 200,73.5C 199.536,72.9056 199.369,72.2389 199.5,71.5 Z"/></g>
<g><path style="opacity:0.008" fill="#fefffe" d="M 104.5,73.5 C 104.631,74.2389 104.464,74.9056 104,75.5C 103.308,74.5632 103.475,73.8966 104.5,73.5 Z"/></g>
<g><path style="opacity:0.007" fill="#fefffe" d="M 178.5,74.5 C 179.167,74.5 179.833,74.5 180.5,74.5C 180.167,75.5 179.5,76.1667 178.5,76.5C 178.5,75.8333 178.5,75.1667 178.5,74.5 Z"/></g>
<g><path style="opacity:0.008" fill="#fefffe" d="M 198.5,74.5 C 199.573,75.2506 199.74,76.2506 199,77.5C 198.517,76.552 198.351,75.552 198.5,74.5 Z"/></g>
<g><path style="opacity:0.012" fill="#fefffe" d="M 105.5,76.5 C 104.833,77.1667 104.833,77.1667 105.5,76.5 Z"/></g>
<g><path style="opacity:0.013" fill="#fefffe" d="M 197.5,79.5 C 198.638,82.3035 198.805,85.3035 198,88.5C 197.502,85.5184 197.335,82.5184 197.5,79.5 Z"/></g>
<g><path style="opacity:0.008" fill="#fefffe" d="M 113.5,89.5 C 112.833,90.1667 112.833,90.1667 113.5,89.5 Z"/></g>
<g><path style="opacity:0.011" fill="#fefffe" d="M 180.5,90.5 C 180.5,90.1667 180.5,89.8333 180.5,89.5C 182.216,89.6287 183.883,89.962 185.5,90.5C 184.791,91.404 183.791,91.7373 182.5,91.5C 182.158,90.6618 181.492,90.3284 180.5,90.5 Z"/></g>
<g><path style="opacity:0.01" fill="#fefffe" d="M 117.5,90.5 C 116.749,91.5735 115.749,91.7401 114.5,91C 115.448,90.5172 116.448,90.3505 117.5,90.5 Z"/></g>
<g><path style="opacity:0.009" fill="#fefffe" d="M 118.5,92.5 C 119.601,91.4017 120.934,91.235 122.5,92C 121.207,92.49 119.873,92.6567 118.5,92.5 Z"/></g>
<g><path style="opacity:0.01" fill="#fefffe" d="M 43.5,93.5 C 44.9464,92.3871 46.6131,92.2204 48.5,93C 46.8659,93.4935 45.1992,93.6602 43.5,93.5 Z"/></g>
<g><path style="opacity:0.009" fill="#fefffe" d="M 128.5,92.5 C 127.054,93.6129 125.387,93.7796 123.5,93C 125.134,92.5065 126.801,92.3398 128.5,92.5 Z"/></g>
<g><path style="opacity:0.004" fill="#fefffe" d="M 42.5,94.5 C 41.8333,93.1667 41.8333,93.1667 42.5,94.5 Z"/></g>
<g><path style="opacity:0.009" fill="#fefffe" d="M 50.5,94.5 C 51.6009,93.4017 52.9343,93.235 54.5,94C 53.2068,94.49 51.8734,94.6567 50.5,94.5 Z"/></g>
<g><path style="opacity:0.01" fill="#fefffe" d="M 129.5,94.5 C 130.601,93.4017 131.934,93.235 133.5,94C 132.207,94.49 130.873,94.6567 129.5,94.5 Z"/></g>
<g><path style="opacity:0.008" fill="#fefffe" d="M 199.5,95.5 C 199.369,94.7611 199.536,94.0944 200,93.5C 200.692,94.4368 200.525,95.1034 199.5,95.5 Z"/></g>
<g><path style="opacity:0.968" fill="#fefefe" d="M 42.5,94.5 C 45.1667,94.5 47.8333,94.5 50.5,94.5C 52.9052,95.7682 55.5718,96.4349 58.5,96.5C 61.9385,98.2043 65.6052,99.5376 69.5,100.5C 70.209,101.404 71.209,101.737 72.5,101.5C 74.1815,103.008 76.1815,104.008 78.5,104.5C 78.8417,105.338 79.5084,105.672 80.5,105.5C 83.1789,107.601 86.0123,109.601 89,111.5C 93.5545,109.707 98.0545,108.041 102.5,106.5C 106.078,106.451 109.411,105.785 112.5,104.5C 122.812,103.695 133.146,103.362 143.5,103.5C 147.615,104.943 151.948,105.943 156.5,106.5C 157.93,107.537 159.597,108.204 161.5,108.5C 163.849,110.341 166.515,111.674 169.5,112.5C 177.544,118.21 184.21,125.21 189.5,133.5C 189.427,135.027 190.094,136.027 191.5,136.5C 191.328,137.492 191.662,138.158 192.5,138.5C 192.402,140.553 193.069,142.22 194.5,143.5C 194.928,146.785 195.928,149.785 197.5,152.5C 197.565,155.428 198.232,158.095 199.5,160.5C 201.021,172.29 200.354,183.957 197.5,195.5C 196.596,196.209 196.263,197.209 196.5,198.5C 195.069,199.78 194.402,201.447 194.5,203.5C 193.662,203.842 193.328,204.508 193.5,205.5C 192.094,205.973 191.427,206.973 191.5,208.5C 190.662,208.842 190.328,209.508 190.5,210.5C 189.833,210.5 189.5,210.833 189.5,211.5C 188.508,211.672 187.842,211.338 187.5,210.5C 188.164,208.19 188.497,205.69 188.5,203C 188.651,198.888 187.984,195.054 186.5,191.5C 186.768,189.901 186.434,188.568 185.5,187.5C 185.737,186.209 185.404,185.209 184.5,184.5C 184.737,183.209 184.404,182.209 183.5,181.5C 183.672,180.508 183.338,179.842 182.5,179.5C 181.526,189.418 181.193,199.418 181.5,209.5C 180.313,212.946 179.646,216.613 179.5,220.5C 178.566,221.568 178.232,222.901 178.5,224.5C 176.928,227.215 175.928,230.215 175.5,233.5C 174.596,234.209 174.263,235.209 174.5,236.5C 173.662,236.842 173.328,237.508 173.5,238.5C 172.069,239.78 171.402,241.447 171.5,243.5C 170.662,243.842 170.328,244.508 170.5,245.5C 169.662,245.842 169.328,246.508 169.5,247.5C 168.094,247.973 167.427,248.973 167.5,250.5C 166.662,250.842 166.328,251.508 166.5,252.5C 165.662,252.842 165.328,253.508 165.5,254.5C 164.833,254.5 164.5,254.833 164.5,255.5C 163.849,256.091 163.182,256.757 162.5,257.5C 162.167,257.167 161.833,256.833 161.5,256.5C 162.816,248.372 162.816,240.372 161.5,232.5C 161.784,230.585 161.451,228.919 160.5,227.5C 159.934,223.194 159.268,222.861 158.5,226.5C 157.069,227.78 156.402,229.447 156.5,231.5C 155.662,231.842 155.328,232.508 155.5,233.5C 154.069,234.78 153.402,236.447 153.5,238.5C 152.662,238.842 152.328,239.508 152.5,240.5C 151.094,240.973 150.427,241.973 150.5,243.5C 149.662,243.842 149.328,244.508 149.5,245.5C 148.662,245.842 148.328,246.508 148.5,247.5C 147.094,247.973 146.427,248.973 146.5,250.5C 145.662,250.842 145.328,251.508 145.5,252.5C 144.833,252.5 144.5,252.833 144.5,253.5C 143.094,253.973 142.427,254.973 142.5,256.5C 141.833,256.5 141.5,256.833 141.5,257.5C 140.094,257.973 139.427,258.973 139.5,260.5C 138.833,260.5 138.5,260.833 138.5,261.5C 137.833,261.5 137.5,261.833 137.5,262.5C 136.833,262.5 136.5,262.833 136.5,263.5C 135.833,263.5 135.5,263.833 135.5,264.5C 134.833,264.5 134.5,264.833 134.5,265.5C 133.833,265.5 133.5,265.833 133.5,266.5C 132.833,266.5 132.5,266.833 132.5,267.5C 131.833,267.5 131.5,267.833 131.5,268.5C 130.833,268.5 130.5,268.833 130.5,269.5C 129.833,269.5 129.5,269.833 129.5,270.5C 128.833,270.5 128.5,270.833 128.5,271.5C 127.624,271.631 126.957,271.298 126.5,270.5C 128.853,266.109 130.187,261.442 130.5,256.5C 131.65,251.684 131.816,246.684 131,241.5C 130.076,239.505 128.91,239.172 127.5,240.5C 125.901,240.232 124.568,240.566 123.5,241.5C 122.209,241.263 121.209,241.596 120.5,242.5C 118.447,242.402 116.78,243.069 115.5,244.5C 114.209,244.263 113.209,244.596 112.5,245.5C 111.508,245.328 110.842,245.662 110.5,246.5C 109.508,246.328 108.842,246.662 108.5,247.5C 107.508,247.328 106.842,247.662 106.5,248.5C 105.508,248.328 104.842,248.662 104.5,249.5C 103.508,249.328 102.842,249.662 102.5,250.5C 101.508,250.328 100.842,250.662 100.5,251.5C 99.5084,251.328 98.8417,251.662 98.5,252.5C 97.8333,252.5 97.5,252.833 97.5,253.5C 96.5084,253.328 95.8417,253.662 95.5,254.5C 94.8333,254.5 94.5,254.833 94.5,255.5C 93.5084,255.328 92.8417,255.662 92.5,256.5C 91.8333,256.5 91.5,256.833 91.5,257.5C 90.5084,257.328 89.8417,257.662 89.5,258.5C 88.8333,258.5 88.5,258.833 88.5,259.5C 86.9731,259.427 85.9731,260.094 85.5,261.5C 84.8333,261.5 84.5,261.833 84.5,262.5C 83.8333,262.5 83.5,262.833 83.5,263.5C 82.8333,263.5 82.5,263.833 82.5,264.5C 78.5,266.5 75.5,269.5 73.5,273.5C 72.8333,273.5 72.5,273.833 72.5,274.5C 71.8333,274.5 71.5,274.833 71.5,275.5C 70.8333,275.5 70.5,275.833 70.5,276.5C 69.6618,276.842 69.3284,277.508 69.5,278.5C 68.8333,278.5 68.5,278.833 68.5,279.5C 67.0937,279.973 66.427,280.973 66.5,282.5C 65.8333,282.5 65.5,282.833 65.5,283.5C 64.6618,283.842 64.3284,284.508 64.5,285.5C 63.6618,285.842 63.3284,286.508 63.5,287.5C 62.8333,287.5 62.5,287.833 62.5,288.5C 61.6618,288.842 61.3284,289.508 61.5,290.5C 60.6618,290.842 60.3284,291.508 60.5,292.5C 59.6618,292.842 59.3284,293.508 59.5,294.5C 58.6618,294.842 58.3284,295.508 58.5,296.5C 57.596,297.209 57.2627,298.209 57.5,299.5C 56.6618,299.842 56.3284,300.508 56.5,301.5C 55.596,302.209 55.2627,303.209 55.5,304.5C 54.596,305.209 54.2627,306.209 54.5,307.5C 52.6974,312.344 51.0307,317.344 49.5,322.5C 48.8281,321.051 48.1614,319.718 47.5,318.5C 47.7845,316.585 47.4511,314.919 46.5,313.5C 44.9211,297.116 45.2545,280.782 47.5,264.5C 48.8699,261.381 49.8699,258.048 50.5,254.5C 54.2828,245.607 59.1161,237.274 65,229.5C 74.4364,220.228 84.2698,211.561 94.5,203.5C 95.9063,203.027 96.573,202.027 96.5,200.5C 97.9723,198.883 98.639,196.883 98.5,194.5C 98.4892,192.955 98.1558,191.622 97.5,190.5C 96.9423,189.21 95.9423,188.377 94.5,188C 90.6425,187.19 86.9758,187.357 83.5,188.5C 81.901,188.232 80.5676,188.566 79.5,189.5C 77.901,189.232 76.5676,189.566 75.5,190.5C 73.4471,190.402 71.7804,191.069 70.5,192.5C 69.209,192.263 68.209,192.596 67.5,193.5C 66.5084,193.328 65.8417,193.662 65.5,194.5C 64.5084,194.328 63.8417,194.662 63.5,195.5C 62.5084,195.328 61.8417,195.662 61.5,196.5C 60.5084,196.328 59.8417,196.662 59.5,197.5C 58.5084,197.328 57.8417,197.662 57.5,198.5C 56.5084,198.328 55.8417,198.662 55.5,199.5C 54.5084,199.328 53.8417,199.662 53.5,200.5C 52.5084,200.328 51.8417,200.662 51.5,201.5C 49.9731,201.427 48.9731,202.094 48.5,203.5C 47.5084,203.328 46.8417,203.662 46.5,204.5C 45.5084,204.328 44.8417,204.662 44.5,205.5C 43.8333,205.5 43.5,205.833 43.5,206.5C 42.5084,206.328 41.8417,206.662 41.5,207.5C 40.8333,207.5 40.5,207.833 40.5,208.5C 39.5084,208.328 38.8417,208.662 38.5,209.5C 37.8333,209.5 37.5,209.833 37.5,210.5C 36.5084,210.328 35.8417,210.662 35.5,211.5C 34.8333,211.5 34.5,211.833 34.5,212.5C 33.5084,212.328 32.8417,212.662 32.5,213.5C 31.5084,213.328 30.8417,213.662 30.5,214.5C 29.209,214.263 28.209,214.596 27.5,215.5C 23.8333,215.5 20.1667,215.5 16.5,215.5C 13.3811,214.13 10.0477,213.13 6.5,212.5C 4.56544,211.19 2.56544,209.857 0.5,208.5C 5.18691,204.145 9.85358,199.812 14.5,195.5C 15.1667,195.5 15.5,195.167 15.5,194.5C 22.8972,187.107 29.8972,179.44 36.5,171.5C 34.5887,170.925 32.922,169.925 31.5,168.5C 31.3404,166.847 30.6737,165.514 29.5,164.5C 29.4788,159.062 30.9788,154.062 34,149.5C 39.3333,142.833 45.3333,136.833 52,131.5C 52.195,130.181 52.0283,128.847 51.5,127.5C 52.1174,127.611 52.6174,127.944 53,128.5C 53.1667,126 53.3333,123.5 53.5,121C 53.4752,118.071 52.8086,115.571 51.5,113.5C 52.6436,110.433 51.977,107.767 49.5,105.5C 49.6716,104.508 49.3382,103.842 48.5,103.5C 46.5,100.5 44.5,97.5 42.5,94.5 Z M 50.5,159.5 C 50.6716,158.508 50.3382,157.842 49.5,157.5C 50.172,156.733 51.0053,156.066 52,155.5C 52.3478,157.14 51.8478,158.473 50.5,159.5 Z M 47.5,159.5 C 48.3382,159.842 48.6716,160.508 48.5,161.5C 46.8333,163.833 44.8333,165.833 42.5,167.5C 41.8333,167.5 41.5,167.833 41.5,168.5C 38.8333,168.833 38.8333,169.167 41.5,169.5C 40.2196,170.931 38.5529,171.598 36.5,171.5C 36.5,171.167 36.5,170.833 36.5,170.5C 37.2389,170.631 37.9056,170.464 38.5,170C 37.7476,169.329 37.4142,168.496 37.5,167.5C 38.3636,166.312 39.3636,165.145 40.5,164C 40.2716,163.601 39.9382,163.435 39.5,163.5C 39.9731,162.094 40.9731,161.427 42.5,161.5C 42.4346,161.938 42.6012,162.272 43,162.5C 44.6516,161.601 46.1516,160.601 47.5,159.5 Z M 42.5,167.5 C 43.1667,167.5 43.8333,167.5 44.5,167.5C 44.0269,168.906 43.0269,169.573 41.5,169.5C 41.5,169.167 41.5,168.833 41.5,168.5C 42.1667,168.5 42.5,168.167 42.5,167.5 Z M 180.5,174.5 C 181.537,175.93 182.204,177.597 182.5,179.5C 180.744,178.448 180.077,176.781 180.5,174.5 Z M 96.5,200.5 C 96.573,202.027 95.9063,203.027 94.5,203.5C 94.427,201.973 95.0937,200.973 96.5,200.5 Z M 160.5,227.5 C 159.833,227.167 159.167,226.833 158.5,226.5C 159.268,222.861 159.934,223.194 160.5,227.5 Z M 144.5,253.5 C 144.573,255.027 143.906,256.027 142.5,256.5C 142.427,254.973 143.094,253.973 144.5,253.5 Z M 88.5,259.5 C 88.0269,260.906 87.0269,261.573 85.5,261.5C 85.9731,260.094 86.9731,259.427 88.5,259.5 Z"/></g>
<g><path style="opacity:0.01" fill="#fefffe" d="M 55.5,95.5 C 55.8966,94.475 56.5632,94.3083 57.5,95C 56.9056,95.4643 56.2389,95.631 55.5,95.5 Z"/></g>
<g><path style="opacity:0.01" fill="#fefffe" d="M 135.5,95.5 C 136.251,94.4265 137.251,94.2599 138.5,95C 137.552,95.4828 136.552,95.6495 135.5,95.5 Z"/></g>
<g><path style="opacity:0.012" fill="#fefffe" d="M 240.5,94.5 C 241.833,95.1667 241.833,95.1667 240.5,94.5 Z"/></g>
<g><path style="opacity:0.004" fill="#fefffe" d="M 243.5,94.5 C 244.833,95.1667 244.833,95.1667 243.5,94.5 Z"/></g>
<g><path style="opacity:0.004" fill="#fefffe" d="M 40.5,95.5 C 41.8333,96.1667 41.8333,96.1667 40.5,95.5 Z"/></g>
<g><path style="opacity:0.009" fill="#fefffe" d="M 58.5,96.5 C 59.2506,95.4265 60.2506,95.2599 61.5,96C 60.552,96.4828 59.552,96.6495 58.5,96.5 Z"/></g>
<g><path style="opacity:0.01" fill="#fefffe" d="M 140.5,96.5 C 141.251,95.4265 142.251,95.2599 143.5,96C 142.552,96.4828 141.552,96.6495 140.5,96.5 Z"/></g>
<g><path style="opacity:0.012" fill="#fefffe" d="M 239.5,96.5 C 238.833,95.1667 238.833,95.1667 239.5,96.5 Z"/></g>
<g><path style="opacity:0.008" fill="#fefffe" d="M 62.5,97.5 C 62.8966,96.475 63.5632,96.3083 64.5,97C 63.9056,97.4643 63.2389,97.631 62.5,97.5 Z"/></g>
<g><path style="opacity:0.009" fill="#fefffe" d="M 144.5,97.5 C 145.251,96.4265 146.251,96.2599 147.5,97C 146.552,97.4828 145.552,97.6495 144.5,97.5 Z"/></g>
<g><path style="opacity:0.012" fill="#fefffe" d="M 200.5,96.5 C 201.833,97.1667 201.833,97.1667 200.5,96.5 Z"/></g>
<g><path style="opacity:0.012" fill="#fefffe" d="M 236.5,96.5 C 237.833,97.1667 237.833,97.1667 236.5,96.5 Z"/></g>
<g><path style="opacity:0.009" fill="#fefffe" d="M 148.5,98.5 C 149.251,97.4265 150.251,97.2599 151.5,98C 150.552,98.4828 149.552,98.6495 148.5,98.5 Z"/></g>
<g><path style="opacity:0.01" fill="#fefffe" d="M 246.5,99.5 C 246.369,98.7611 246.536,98.0944 247,97.5C 247.692,98.4368 247.525,99.1034 246.5,99.5 Z"/></g>
<g><path style="opacity:0.008" fill="#fefffe" d="M 69.5,100.5 C 69.8966,99.475 70.5632,99.3083 71.5,100C 70.9056,100.464 70.2389,100.631 69.5,100.5 Z"/></g>
<g><path style="opacity:0.009" fill="#fefffe" d="M 158.5,99.5 C 157.749,100.573 156.749,100.74 155.5,100C 156.448,99.5172 157.448,99.3505 158.5,99.5 Z"/></g>
<g><path style="opacity:0.012" fill="#fefffe" d="M 231.5,99.5 C 232.833,100.167 232.833,100.167 231.5,99.5 Z"/></g>
<g><path style="opacity:0.012" fill="#fefffe" d="M 72.5,100.5 C 73.8333,101.167 73.8333,101.167 72.5,100.5 Z"/></g>
<g><path style="opacity:0.01" fill="#fefffe" d="M 161.5,100.5 C 161.5,100.833 161.5,101.167 161.5,101.5C 158.833,101.167 158.833,100.833 161.5,100.5 Z"/></g>
<g><path style="opacity:0.012" fill="#fefffe" d="M 202.5,100.5 C 203.833,101.167 203.833,101.167 202.5,100.5 Z"/></g>
<g><path style="opacity:0.011" fill="#fefffe" d="M 121.5,102.5 C 127.987,101.346 134.654,101.179 141.5,102C 134.842,102.5 128.175,102.666 121.5,102.5 Z"/></g>
<g><path style="opacity:0.008" fill="#fefffe" d="M 161.5,101.5 C 162.239,101.369 162.906,101.536 163.5,102C 162.563,102.692 161.897,102.525 161.5,101.5 Z"/></g>
<g><path style="opacity:0.01" fill="#fefffe" d="M 247.5,101.5 C 248.654,107.987 248.821,114.654 248,121.5C 247.5,114.842 247.334,108.175 247.5,101.5 Z"/></g>
<g><path style="opacity:0.01" fill="#fefffe" d="M 113.5,103.5 C 114.946,102.387 116.613,102.22 118.5,103C 116.866,103.494 115.199,103.66 113.5,103.5 Z"/></g>
<g><path style="opacity:0.009" fill="#fefffe" d="M 143.5,103.5 C 144.946,102.387 146.613,102.22 148.5,103C 146.866,103.494 145.199,103.66 143.5,103.5 Z"/></g>
<g><path style="opacity:0.016" fill="#fefffe" d="M 48.5,103.5 C 47.8333,104.167 47.8333,104.167 48.5,103.5 Z"/></g>
<g><path style="opacity:0.012" fill="#fefffe" d="M 78.5,103.5 C 79.8333,104.167 79.8333,104.167 78.5,103.5 Z"/></g>
<g><path style="opacity:0.01" fill="#fefffe" d="M 112.5,104.5 C 111.127,104.657 109.793,104.49 108.5,104C 110.066,103.235 111.399,103.402 112.5,104.5 Z"/></g>
<g><path style="opacity:0.009" fill="#fefffe" d="M 149.5,104.5 C 150.251,103.427 151.251,103.26 152.5,104C 151.552,104.483 150.552,104.649 149.5,104.5 Z"/></g>
<g><path style="opacity:0.008" fill="#fefffe" d="M 205.5,105.5 C 205.167,105.5 204.833,105.5 204.5,105.5C 204.833,102.833 205.167,102.833 205.5,105.5 Z"/></g>
<g><path style="opacity:0.012" fill="#fefffe" d="M 80.5,104.5 C 81.8333,105.167 81.8333,105.167 80.5,104.5 Z"/></g>
<g><path style="opacity:0.012" fill="#fefffe" d="M 103.5,105.5 C 104.251,104.427 105.251,104.26 106.5,105C 105.552,105.483 104.552,105.649 103.5,105.5 Z"/></g>
<g><path style="opacity:0.012" fill="#fefffe" d="M 153.5,105.5 C 153.897,104.475 154.563,104.308 155.5,105C 154.906,105.464 154.239,105.631 153.5,105.5 Z"/></g>
<g><path style="opacity:0.016" fill="#fefffe" d="M 49.5,105.5 C 48.8333,106.167 48.8333,106.167 49.5,105.5 Z"/></g>
<g><path style="opacity:0.009" fill="#fefffe" d="M 102.5,106.5 C 101.448,106.649 100.448,106.483 99.5,106C 100.749,105.26 101.749,105.427 102.5,106.5 Z"/></g>
<g><path style="opacity:0.01" fill="#fefffe" d="M 156.5,106.5 C 156.897,105.475 157.563,105.308 158.5,106C 157.906,106.464 157.239,106.631 156.5,106.5 Z"/></g>
<g><path style="opacity:0.012" fill="#fefffe" d="M 205.5,105.5 C 206.833,106.167 206.833,106.167 205.5,105.5 Z"/></g>
<g><path style="opacity:0.007" fill="#fefffe" d="M 33.5,108.5 C 37.9811,107.352 42.6478,107.185 47.5,108C 42.8452,108.499 38.1785,108.666 33.5,108.5 Z"/></g>
<g><path style="opacity:0.008" fill="#fefffe" d="M 161.5,108.5 C 161.897,107.475 162.563,107.308 163.5,108C 162.906,108.464 162.239,108.631 161.5,108.5 Z"/></g>
<g><path style="opacity:0.01" fill="#fefffe" d="M 26.5,109.5 C 27.6009,108.402 28.9343,108.235 30.5,109C 29.2068,109.49 27.8734,109.657 26.5,109.5 Z"/></g>
<g><path style="opacity:0.012" fill="#fefffe" d="M 164.5,108.5 C 165.833,109.167 165.833,109.167 164.5,108.5 Z"/></g>
<g><path style="opacity:0.847" fill="#fefefe" d="M 51.5,113.5 C 51.5,118.167 51.5,122.833 51.5,127.5C 49.4652,130.573 46.7985,133.24 43.5,135.5C 42.8302,133.709 42.1635,132.042 41.5,130.5C 41.7373,129.209 41.404,128.209 40.5,127.5C 37.6259,120.624 32.9592,115.291 26.5,111.5C 34.0402,109.525 41.7069,109.025 49.5,110C 50.0848,111.302 50.7515,112.469 51.5,113.5 Z"/></g>
<g><path style="opacity:0.012" fill="#fefffe" d="M 166.5,109.5 C 167.833,110.167 167.833,110.167 166.5,109.5 Z"/></g>
<g><path style="opacity:0.008" fill="#fefffe" d="M 218.5,109.5 C 219.833,110.167 219.833,110.167 218.5,109.5 Z"/></g>
<g><path style="opacity:0.014" fill="#fefffe" d="M 231.5,109.5 C 232.649,109.791 233.316,110.624 233.5,112C 233.333,112.833 233.167,113.667 233,114.5C 232.648,112.753 232.148,111.086 231.5,109.5 Z"/></g>
<g><path style="opacity:0.008" fill="#fefffe" d="M 228.5,111.5 C 228.5,111.167 228.5,110.833 228.5,110.5C 231.167,110.833 231.167,111.167 228.5,111.5 Z"/></g>
<g><path style="opacity:0.016" fill="#fefffe" d="M 169.5,111.5 C 170.833,112.167 170.833,112.167 169.5,111.5 Z"/></g>
<g><path style="opacity:0.008" fill="#fefffe" d="M 218.5,111.5 C 219.833,112.167 219.833,112.167 218.5,111.5 Z"/></g>
<g><path style="opacity:0.01" fill="#fefffe" d="M 226.5,112.5 C 226.5,112.167 226.5,111.833 226.5,111.5C 227.167,111.5 227.833,111.5 228.5,111.5C 228.158,112.338 227.492,112.672 226.5,112.5 Z"/></g>
<g><path style="opacity:0.008" fill="#fefffe" d="M 171.5,112.5 C 172.833,113.167 172.833,113.167 171.5,112.5 Z"/></g>
<g><path style="opacity:0.01" fill="#fefffe" d="M 224.5,113.5 C 224.5,113.167 224.5,112.833 224.5,112.5C 225.167,112.5 225.833,112.5 226.5,112.5C 226.158,113.338 225.492,113.672 224.5,113.5 Z"/></g>
<g><path style="opacity:0.006" fill="#fefffe" d="M 214.5,116.5 C 213.833,116.5 213.167,116.5 212.5,116.5C 211.833,116.5 211.5,116.167 211.5,115.5C 212.322,113.45 213.322,113.783 214.5,116.5 Z"/></g>
<g><path style="opacity:0.008" fill="#fefffe" d="M 222.5,114.5 C 222.5,114.167 222.5,113.833 222.5,113.5C 223.167,113.5 223.833,113.5 224.5,113.5C 224.158,114.338 223.492,114.672 222.5,114.5 Z"/></g>
<g><path style="opacity:0.004" fill="#fefffe" d="M 222.5,114.5 C 221.833,115.167 221.833,115.167 222.5,114.5 Z"/></g>
<g><path style="opacity:0.01" fill="#fefffe" d="M 231.5,117.5 C 231.369,116.761 231.536,116.094 232,115.5C 232.692,116.437 232.525,117.103 231.5,117.5 Z"/></g>
<g><path style="opacity:0.006" fill="#fefffe" d="M 188.5,116.5 C 189.167,116.5 189.5,116.833 189.5,117.5C 188.503,118.713 187.503,118.546 186.5,117C 187.094,116.536 187.761,116.369 188.5,116.5 Z"/></g>
<g><path style="opacity:0.009" fill="#fefffe" d="M 214.5,117.5 C 214.5,117.167 214.5,116.833 214.5,116.5C 221.167,116.833 221.167,117.167 214.5,117.5 Z"/></g>
<g><path style="opacity:0.007" fill="#fefffe" d="M 226.5,118.5 C 227.251,117.427 228.251,117.26 229.5,118C 228.552,118.483 227.552,118.649 226.5,118.5 Z"/></g>
<g><path style="opacity:0.004" fill="#fefffe" d="M 231.5,117.5 C 230.833,118.167 230.833,118.167 231.5,117.5 Z"/></g>
<g><path style="opacity:0.009" fill="#fefffe" d="M 246.5,122.5 C 247.573,123.251 247.74,124.251 247,125.5C 246.517,124.552 246.351,123.552 246.5,122.5 Z"/></g>
<g><path style="opacity:0.012" fill="#fefffe" d="M 245.5,126.5 C 246.833,127.167 246.833,127.167 245.5,126.5 Z"/></g>
<g><path style="opacity:0.012" fill="#fefffe" d="M 40.5,127.5 C 40.631,128.239 40.4643,128.906 40,129.5C 39.3083,128.563 39.475,127.897 40.5,127.5 Z"/></g>
<g><path style="opacity:0.004" fill="#fefffe" d="M 244.5,127.5 C 244.833,127.5 245.167,127.5 245.5,127.5C 245.315,128.17 244.981,128.17 244.5,127.5 Z"/></g>
<g><path style="opacity:0.008" fill="#fefffe" d="M 242.5,129.5 C 243.833,130.167 243.833,130.167 242.5,129.5 Z"/></g>
<g><path style="opacity:0.009" fill="#fefffe" d="M 41.5,130.5 C 41.6567,131.873 41.49,133.207 41,134.5C 40.235,132.934 40.4017,131.601 41.5,130.5 Z"/></g>
<g><path style="opacity:0.012" fill="#fefffe" d="M 242.5,130.5 C 241.833,131.167 241.833,131.167 242.5,130.5 Z"/></g>
<g><path style="opacity:0.006" fill="#fefffe" d="M 190.5,133.5 C 190.167,133.5 189.833,133.5 189.5,133.5C 189.833,130.833 190.167,130.833 190.5,133.5 Z"/></g>
<g><path style="opacity:0.012" fill="#fefffe" d="M 239.5,131.5 C 240.833,132.167 240.833,132.167 239.5,131.5 Z"/></g>
<g><path style="opacity:0.012" fill="#fefffe" d="M 237.5,132.5 C 238.833,133.167 238.833,133.167 237.5,132.5 Z"/></g>
<g><path style="opacity:0.012" fill="#fefffe" d="M 190.5,133.5 C 191.833,134.167 191.833,134.167 190.5,133.5 Z"/></g>
<g><path style="opacity:0.012" fill="#fefffe" d="M 235.5,133.5 C 236.833,134.167 236.833,134.167 235.5,133.5 Z"/></g>
<g><path style="opacity:0.01" fill="#fefffe" d="M 232.5,134.5 C 233.239,134.369 233.906,134.536 234.5,135C 233.563,135.692 232.897,135.525 232.5,134.5 Z"/></g>
<g><path style="opacity:0.012" fill="#fefffe" d="M 191.5,135.5 C 192.833,136.167 192.833,136.167 191.5,135.5 Z"/></g>
<g><path style="opacity:0.008" fill="#fefffe" d="M 210.5,135.5 C 210.103,136.525 209.437,136.692 208.5,136C 209.094,135.536 209.761,135.369 210.5,135.5 Z"/></g>
<g><path style="opacity:0.012" fill="#fefffe" d="M 229.5,135.5 C 230.239,135.369 230.906,135.536 231.5,136C 230.563,136.692 229.897,136.525 229.5,135.5 Z"/></g>
<g><path style="opacity:0.01" fill="#fefffe" d="M 214.5,136.5 C 213.749,137.573 212.749,137.74 211.5,137C 212.448,136.517 213.448,136.351 214.5,136.5 Z"/></g>
<g><path style="opacity:0.01" fill="#fefffe" d="M 225.5,137.5 C 226.251,136.427 227.251,136.26 228.5,137C 227.552,137.483 226.552,137.649 225.5,137.5 Z"/></g>
<g><path style="opacity:0.012" fill="#fefffe" d="M 192.5,137.5 C 193.833,138.167 193.833,138.167 192.5,137.5 Z"/></g>
<g><path style="opacity:0.006" fill="#fefffe" d="M 216.5,138.5 C 218.628,137.371 220.961,137.204 223.5,138C 221.19,138.497 218.857,138.663 216.5,138.5 Z"/></g>
<g><path style="opacity:0.012" fill="#fefffe" d="M 193.5,139.5 C 194.833,140.167 194.833,140.167 193.5,139.5 Z"/></g>
<g><path style="opacity:0.008" fill="#fefffe" d="M 195.5,143.5 C 195.167,143.5 194.833,143.5 194.5,143.5C 194.833,140.833 195.167,140.833 195.5,143.5 Z"/></g>
<g><path style="opacity:0.008" fill="#fefffe" d="M 195.5,143.5 C 196.525,143.897 196.692,144.563 196,145.5C 195.536,144.906 195.369,144.239 195.5,143.5 Z"/></g>
<g><path style="opacity:0.008" fill="#fefffe" d="M 34.5,145.5 C 35.8333,146.167 35.8333,146.167 34.5,145.5 Z"/></g>
<g><path style="opacity:0.01" fill="#fefffe" d="M 196.5,146.5 C 197.525,146.897 197.692,147.563 197,148.5C 196.536,147.906 196.369,147.239 196.5,146.5 Z"/></g>
<g><path style="opacity:0.009" fill="#fefffe" d="M 198.5,152.5 C 198.167,152.5 197.833,152.5 197.5,152.5C 197.833,148.5 198.167,148.5 198.5,152.5 Z"/></g>
<g><path style="opacity:0.009" fill="#fefffe" d="M 198.5,152.5 C 199.573,153.251 199.74,154.251 199,155.5C 198.517,154.552 198.351,153.552 198.5,152.5 Z"/></g>
<g><path style="opacity:0.009" fill="#fefffe" d="M 199.5,160.5 C 199.343,159.127 199.51,157.793 200,156.5C 200.765,158.066 200.598,159.399 199.5,160.5 Z"/></g>
<g><path style="opacity:0.011" fill="#fefffe" d="M 49.5,157.5 C 50.3382,157.842 50.6716,158.508 50.5,159.5C 49.6618,159.842 49.3284,160.508 49.5,161.5C 49.1667,161.5 48.8333,161.5 48.5,161.5C 48.6716,160.508 48.3382,159.842 47.5,159.5C 47.5,159.167 47.5,158.833 47.5,158.5C 48.4916,158.672 49.1583,158.338 49.5,157.5 Z"/></g>
<g><path style="opacity:0.004" fill="#fefffe" d="M 27.5,159.5 C 28.5983,160.601 28.765,161.934 28,163.5C 27.51,162.207 27.3433,160.873 27.5,159.5 Z"/></g>
<g><path style="opacity:0.012" fill="#fefffe" d="M 200.5,162.5 C 201.613,163.946 201.78,165.613 201,167.5C 200.506,165.866 200.34,164.199 200.5,162.5 Z"/></g>
<g><path style="opacity:0.01" fill="#fefffe" d="M 29.5,164.5 C 29.631,165.239 29.4643,165.906 29,166.5C 28.3083,165.563 28.475,164.897 29.5,164.5 Z"/></g>
<g><path style="opacity:0.008" fill="#fefffe" d="M 30.5,168.5 C 29.8333,167.167 29.8333,167.167 30.5,168.5 Z"/></g>
<g><path style="opacity:0.016" fill="#fefffe" d="M 36.5,167.5 C 36.8333,167.5 37.1667,167.5 37.5,167.5C 37.4142,168.496 37.7476,169.329 38.5,170C 37.9056,170.464 37.2389,170.631 36.5,170.5C 36.5,169.5 36.5,168.5 36.5,167.5 Z"/></g>
<g><path style="opacity:0.008" fill="#fefffe" d="M 30.5,168.5 C 30.8333,168.5 31.1667,168.5 31.5,168.5C 31.3147,169.17 30.9813,169.17 30.5,168.5 Z"/></g>
<g><path style="opacity:0.004" fill="#fefffe" d="M 32.5,171.5 C 31.8333,170.167 31.8333,170.167 32.5,171.5 Z"/></g>
<g><path style="opacity:0.004" fill="#fefffe" d="M 32.5,171.5 C 33.8333,172.167 33.8333,172.167 32.5,171.5 Z"/></g>
<g><path style="opacity:0.004" fill="#fefffe" d="M 201.5,173.5 C 202.525,173.897 202.692,174.563 202,175.5C 201.536,174.906 201.369,174.239 201.5,173.5 Z"/></g>
<g><path style="opacity:0.008" fill="#fefffe" d="M 29.5,175.5 C 30.8333,176.167 30.8333,176.167 29.5,175.5 Z"/></g>
<g><path style="opacity:0.012" fill="#fefffe" d="M 183.5,181.5 C 183.263,182.791 183.596,183.791 184.5,184.5C 183.94,186.801 183.44,189.134 183,191.5C 182.192,187.973 182.359,184.64 183.5,181.5 Z"/></g>
<g><path style="opacity:0.01" fill="#fefffe" d="M 200.5,181.5 C 201.613,182.946 201.78,184.613 201,186.5C 200.506,184.866 200.34,183.199 200.5,181.5 Z"/></g>
<g><path style="opacity:0.008" fill="#fefffe" d="M 185.5,187.5 C 185.649,188.552 185.483,189.552 185,190.5C 184.26,189.251 184.427,188.251 185.5,187.5 Z"/></g>
<g><path style="opacity:0.011" fill="#fefffe" d="M 83.5,188.5 C 86.8499,188.335 90.1832,188.502 93.5,189C 89.9733,189.808 86.6399,189.641 83.5,188.5 Z"/></g>
<g><path style="opacity:0.01" fill="#fefffe" d="M 199.5,188.5 C 200.573,189.251 200.74,190.251 200,191.5C 199.517,190.552 199.351,189.552 199.5,188.5 Z"/></g>
<g><path style="opacity:0.009" fill="#fefffe" d="M 79.5,189.5 C 80.552,189.351 81.552,189.517 82.5,190C 81.2506,190.74 80.2506,190.573 79.5,189.5 Z"/></g>
<g><path style="opacity:0.008" fill="#fefffe" d="M 75.5,191.5 C 75.5,191.167 75.5,190.833 75.5,190.5C 79.5,190.833 79.5,191.167 75.5,191.5 Z"/></g>
<g><path style="opacity:0.014" fill="#fefffe" d="M 97.5,190.5 C 97.631,191.239 97.4643,191.906 97,192.5C 96.3083,191.563 96.475,190.897 97.5,190.5 Z"/></g>
<g><path style="opacity:0.008" fill="#fefffe" d="M 75.5,191.5 C 75.1034,192.525 74.4368,192.692 73.5,192C 74.0944,191.536 74.7611,191.369 75.5,191.5 Z"/></g>
<g><path style="opacity:0.012" fill="#fefffe" d="M 186.5,191.5 C 186.649,192.552 186.483,193.552 186,194.5C 185.26,193.251 185.427,192.251 186.5,191.5 Z"/></g>
<g><path style="opacity:0.01" fill="#fefffe" d="M 70.5,192.5 C 71.2389,192.369 71.9056,192.536 72.5,193C 71.5632,193.692 70.8966,193.525 70.5,192.5 Z"/></g>
<g><path style="opacity:0.012" fill="#fefffe" d="M 198.5,192.5 C 199.525,192.897 199.692,193.563 199,194.5C 198.536,193.906 198.369,193.239 198.5,192.5 Z"/></g>
<g><path style="opacity:0.004" fill="#fefffe" d="M 15.5,194.5 C 14.8333,194.5 14.5,194.833 14.5,195.5C 12.0248,195.253 12.0248,194.587 14.5,193.5C 15.1067,193.624 15.44,193.957 15.5,194.5 Z"/></g>
<g><path style="opacity:0.01" fill="#fefffe" d="M 67.5,194.5 C 67.5,194.167 67.5,193.833 67.5,193.5C 70.1667,193.833 70.1667,194.167 67.5,194.5 Z"/></g>
<g><path style="opacity:0.01" fill="#fefffe" d="M 65.5,195.5 C 65.5,195.167 65.5,194.833 65.5,194.5C 66.1667,194.5 66.8333,194.5 67.5,194.5C 67.1583,195.338 66.4916,195.672 65.5,195.5 Z"/></g>
<g><path style="opacity:0.008" fill="#fefffe" d="M 63.5,196.5 C 63.5,196.167 63.5,195.833 63.5,195.5C 64.1667,195.5 64.8333,195.5 65.5,195.5C 65.1583,196.338 64.4916,196.672 63.5,196.5 Z"/></g>
<g><path style="opacity:0.008" fill="#fefffe" d="M 197.5,195.5 C 198.833,196.5 198.833,197.5 197.5,198.5C 197.5,197.5 197.5,196.5 197.5,195.5 Z"/></g>
<g><path style="opacity:0.008" fill="#fefffe" d="M 61.5,196.5 C 62.1667,196.5 62.8333,196.5 63.5,196.5C 62.8333,197.833 62.1667,197.833 61.5,196.5 Z"/></g>
<g><path style="opacity:0.009" fill="#fefffe" d="M 187.5,210.5 C 186.352,206.019 186.185,201.352 187,196.5C 187.499,201.155 187.666,205.821 187.5,210.5 Z"/></g>
<g><path style="opacity:0.012" fill="#fefffe" d="M 59.5,197.5 C 60.8333,198.167 60.8333,198.167 59.5,197.5 Z"/></g>
<g><path style="opacity:0.012" fill="#fefffe" d="M 57.5,198.5 C 58.8333,199.167 58.8333,199.167 57.5,198.5 Z"/></g>
<g><path style="opacity:0.01" fill="#fefffe" d="M 182.5,198.5 C 183.638,201.304 183.805,204.304 183,207.5C 182.502,204.518 182.335,201.518 182.5,198.5 Z"/></g>
<g><path style="opacity:0.01" fill="#fefffe" d="M 196.5,198.5 C 196.833,198.5 197.167,198.5 197.5,198.5C 197.167,201.167 196.833,201.167 196.5,198.5 Z"/></g>
<g><path style="opacity:0.012" fill="#fefffe" d="M 55.5,199.5 C 56.8333,200.167 56.8333,200.167 55.5,199.5 Z"/></g>
<g><path style="opacity:0.008" fill="#fefffe" d="M 53.5,201.5 C 53.5,201.167 53.5,200.833 53.5,200.5C 54.1667,200.5 54.8333,200.5 55.5,200.5C 55.1583,201.338 54.4916,201.672 53.5,201.5 Z"/></g>
<g><path style="opacity:0.008" fill="#fefffe" d="M 51.5,202.5 C 51.5,202.167 51.5,201.833 51.5,201.5C 52.1667,201.5 52.8333,201.5 53.5,201.5C 53.1583,202.338 52.4916,202.672 51.5,202.5 Z"/></g>
<g><path style="opacity:0.012" fill="#fefffe" d="M 195.5,201.5 C 196.833,202.167 196.833,202.167 195.5,201.5 Z"/></g>
<g><path style="opacity:0.012" fill="#fefffe" d="M 51.5,202.5 C 50.8333,203.167 50.8333,203.167 51.5,202.5 Z"/></g>
<g><path style="opacity:0.016" fill="#fefffe" d="M 48.5,203.5 C 49.8333,204.167 49.8333,204.167 48.5,203.5 Z"/></g>
<g><path style="opacity:0.012" fill="#fefffe" d="M 194.5,203.5 C 195.833,204.167 195.833,204.167 194.5,203.5 Z"/></g>
<g><path style="opacity:0.008" fill="#fefffe" d="M 46.5,205.5 C 46.5,205.167 46.5,204.833 46.5,204.5C 47.1667,204.5 47.8333,204.5 48.5,204.5C 48.1583,205.338 47.4916,205.672 46.5,205.5 Z"/></g>
<g><path style="opacity:0.006" fill="#fefffe" d="M 44.5,206.5 C 44.5,206.167 44.5,205.833 44.5,205.5C 45.1667,205.5 45.8333,205.5 46.5,205.5C 46.1583,206.338 45.4916,206.672 44.5,206.5 Z"/></g>
<g><path style="opacity:0.012" fill="#fefffe" d="M 193.5,205.5 C 194.833,206.167 194.833,206.167 193.5,205.5 Z"/></g>
<g><path style="opacity:0.016" fill="#fefffe" d="M 43.5,206.5 C 43.8333,206.5 44.1667,206.5 44.5,206.5C 44.3147,207.17 43.9813,207.17 43.5,206.5 Z"/></g>
<g><path style="opacity:0.008" fill="#fefffe" d="M 41.5,208.5 C 41.5,208.167 41.5,207.833 41.5,207.5C 42.1667,207.5 42.8333,207.5 43.5,207.5C 43.1583,208.338 42.4916,208.672 41.5,208.5 Z"/></g>
<g><path style="opacity:0.012" fill="#fefffe" d="M 192.5,207.5 C 193.833,208.167 193.833,208.167 192.5,207.5 Z"/></g>
<g><path style="opacity:0.012" fill="#fefffe" d="M 40.5,208.5 C 40.8333,208.5 41.1667,208.5 41.5,208.5C 41.3147,209.17 40.9813,209.17 40.5,208.5 Z"/></g>
<g><path style="opacity:0.006" fill="#fefffe" d="M 191.5,208.5 C 191.833,208.5 192.167,208.5 192.5,208.5C 192.672,209.492 192.338,210.158 191.5,210.5C 191.5,209.833 191.5,209.167 191.5,208.5 Z"/></g>
<g><path style="opacity:0.008" fill="#fefffe" d="M 38.5,210.5 C 38.5,210.167 38.5,209.833 38.5,209.5C 39.1667,209.5 39.8333,209.5 40.5,209.5C 40.1583,210.338 39.4916,210.672 38.5,210.5 Z"/></g>
<g><path style="opacity:0.009" fill="#fefffe" d="M 181.5,209.5 C 182.613,210.946 182.78,212.613 182,214.5C 181.506,212.866 181.34,211.199 181.5,209.5 Z"/></g>
<g><path style="opacity:0.012" fill="#fefffe" d="M 37.5,210.5 C 37.8333,210.5 38.1667,210.5 38.5,210.5C 38.3147,211.17 37.9813,211.17 37.5,210.5 Z"/></g>
<g><path style="opacity:0.004" fill="#fefffe" d="M 190.5,210.5 C 190.833,210.5 191.167,210.5 191.5,210.5C 191.315,211.17 190.981,211.17 190.5,210.5 Z"/></g>
<g><path style="opacity:0.008" fill="#fefffe" d="M 35.5,212.5 C 35.5,212.167 35.5,211.833 35.5,211.5C 36.1667,211.5 36.8333,211.5 37.5,211.5C 37.1583,212.338 36.4916,212.672 35.5,212.5 Z"/></g>
<g><path style="opacity:0.004" fill="#fefffe" d="M 189.5,211.5 C 189.833,211.5 190.167,211.5 190.5,211.5C 190.315,212.17 189.981,212.17 189.5,211.5 Z"/></g>
<g><path style="opacity:0.01" fill="#fefffe" d="M 6.5,212.5 C 6.5,212.833 6.5,213.167 6.5,213.5C 3.83333,213.167 3.83333,212.833 6.5,212.5 Z"/></g>
<g><path style="opacity:0.012" fill="#fefffe" d="M 34.5,212.5 C 34.8333,212.5 35.1667,212.5 35.5,212.5C 35.3147,213.17 34.9813,213.17 34.5,212.5 Z"/></g>
<g><path style="opacity:0.008" fill="#fefffe" d="M 6.5,213.5 C 7.23891,213.369 7.90558,213.536 8.5,214C 7.56323,214.692 6.89657,214.525 6.5,213.5 Z"/></g>
<g><path style="opacity:0.008" fill="#fefffe" d="M 32.5,214.5 C 32.5,214.167 32.5,213.833 32.5,213.5C 33.1667,213.5 33.8333,213.5 34.5,213.5C 34.1583,214.338 33.4916,214.672 32.5,214.5 Z"/></g>
<g><path style="opacity:0.01" fill="#fefffe" d="M 9.5,215.5 C 9.89657,214.475 10.5632,214.308 11.5,215C 10.9056,215.464 10.2389,215.631 9.5,215.5 Z"/></g>
<g><path style="opacity:0.006" fill="#fefffe" d="M 30.5,215.5 C 30.5,215.167 30.5,214.833 30.5,214.5C 31.1667,214.5 31.8333,214.5 32.5,214.5C 32.1583,215.338 31.4916,215.672 30.5,215.5 Z"/></g>
<g><path style="opacity:0.009" fill="#fefffe" d="M 16.5,215.5 C 15.3991,216.598 14.0657,216.765 12.5,216C 13.7932,215.51 15.1266,215.343 16.5,215.5 Z"/></g>
<g><path style="opacity:0.008" fill="#fefffe" d="M 27.5,215.5 C 28.5,215.5 29.5,215.5 30.5,215.5C 29.5,216.833 28.5,216.833 27.5,215.5 Z"/></g>
<g><path style="opacity:0.007" fill="#fefffe" d="M 18.5,217.5 C 20.9664,216.366 23.633,216.199 26.5,217C 23.854,217.497 21.1873,217.664 18.5,217.5 Z"/></g>
<g><path style="opacity:0.009" fill="#fefffe" d="M 180.5,216.5 C 181.573,217.251 181.74,218.251 181,219.5C 180.517,218.552 180.351,217.552 180.5,216.5 Z"/></g>
<g><path style="opacity:0.01" fill="#fefffe" d="M 179.5,220.5 C 180.573,221.251 180.74,222.251 180,223.5C 179.517,222.552 179.351,221.552 179.5,220.5 Z"/></g>
<g><path style="opacity:0.008" fill="#fefffe" d="M 178.5,224.5 C 179.573,225.251 179.74,226.251 179,227.5C 178.517,226.552 178.351,225.552 178.5,224.5 Z"/></g>
<g><path style="opacity:0.009" fill="#fefffe" d="M 158.5,226.5 C 159.167,226.833 159.833,227.167 160.5,227.5C 160.152,232.375 159.485,232.041 158.5,226.5 Z"/></g>
<g><path style="opacity:0.01" fill="#fefffe" d="M 177.5,228.5 C 178.525,228.897 178.692,229.563 178,230.5C 177.536,229.906 177.369,229.239 177.5,228.5 Z"/></g>
<g><path style="opacity:0.008" fill="#fefffe" d="M 157.5,231.5 C 157.369,230.761 157.536,230.094 158,229.5C 158.692,230.437 158.525,231.103 157.5,231.5 Z"/></g>
<g><path style="opacity:0.01" fill="#fefffe" d="M 156.5,231.5 C 156.833,231.5 157.167,231.5 157.5,231.5C 157.672,232.492 157.338,233.158 156.5,233.5C 156.5,232.833 156.5,232.167 156.5,231.5 Z"/></g>
<g><path style="opacity:0.008" fill="#fefffe" d="M 176.5,233.5 C 176.369,232.761 176.536,232.094 177,231.5C 177.692,232.437 177.525,233.103 176.5,233.5 Z"/></g>
<g><path style="opacity:0.008" fill="#fefffe" d="M 161.5,232.5 C 161.666,239.841 161.5,247.174 161,254.5C 160.178,246.988 160.345,239.655 161.5,232.5 Z"/></g>
<g><path style="opacity:0.01" fill="#fefffe" d="M 155.5,233.5 C 155.833,233.5 156.167,233.5 156.5,233.5C 156.167,236.167 155.833,236.167 155.5,233.5 Z"/></g>
<g><path style="opacity:0.008" fill="#fefffe" d="M 175.5,233.5 C 175.833,233.5 176.167,233.5 176.5,233.5C 176.167,236.167 175.833,236.167 175.5,233.5 Z"/></g>
<g><path style="opacity:0.012" fill="#fefffe" d="M 154.5,236.5 C 155.833,237.167 155.833,237.167 154.5,236.5 Z"/></g>
<g><path style="opacity:0.01" fill="#fefffe" d="M 174.5,236.5 C 175.833,237.167 175.833,237.833 174.5,238.5C 174.5,237.833 174.5,237.167 174.5,236.5 Z"/></g>
<g><path style="opacity:0.012" fill="#fefffe" d="M 153.5,238.5 C 154.833,239.167 154.833,239.167 153.5,238.5 Z"/></g>
<g><path style="opacity:0.01" fill="#fefffe" d="M 173.5,238.5 C 173.833,238.5 174.167,238.5 174.5,238.5C 174.167,241.167 173.833,241.167 173.5,238.5 Z"/></g>
<g><path style="opacity:0.016" fill="#fefffe" d="M 127.5,240.5 C 128.239,240.369 128.906,240.536 129.5,241C 128.563,241.692 127.897,241.525 127.5,240.5 Z"/></g>
<g><path style="opacity:0.012" fill="#fefffe" d="M 152.5,240.5 C 153.833,241.167 153.833,241.167 152.5,240.5 Z"/></g>
<g><path style="opacity:0.008" fill="#fefffe" d="M 123.5,242.5 C 123.5,242.167 123.5,241.833 123.5,241.5C 127.5,241.833 127.5,242.167 123.5,242.5 Z"/></g>
<g><path style="opacity:0.012" fill="#fefffe" d="M 172.5,241.5 C 173.833,242.167 173.833,242.167 172.5,241.5 Z"/></g>
<g><path style="opacity:0.008" fill="#fefffe" d="M 120.5,243.5 C 120.5,243.167 120.5,242.833 120.5,242.5C 121.5,242.5 122.5,242.5 123.5,242.5C 122.791,243.404 121.791,243.737 120.5,243.5 Z"/></g>
<g><path style="opacity:0.008" fill="#fefffe" d="M 129.5,242.5 C 130.613,243.946 130.78,245.613 130,247.5C 129.506,245.866 129.34,244.199 129.5,242.5 Z"/></g>
<g><path style="opacity:0.012" fill="#fefffe" d="M 151.5,242.5 C 152.833,243.167 152.833,243.167 151.5,242.5 Z"/></g>
<g><path style="opacity:0.008" fill="#fefffe" d="M 120.5,243.5 C 120.103,244.525 119.437,244.692 118.5,244C 119.094,243.536 119.761,243.369 120.5,243.5 Z"/></g>
<g><path style="opacity:0.008" fill="#fefffe" d="M 150.5,243.5 C 150.833,243.5 151.167,243.5 151.5,243.5C 151.672,244.492 151.338,245.158 150.5,245.5C 150.5,244.833 150.5,244.167 150.5,243.5 Z"/></g>
<g><path style="opacity:0.012" fill="#fefffe" d="M 171.5,243.5 C 172.833,244.167 172.833,244.167 171.5,243.5 Z"/></g>
<g><path style="opacity:0.008" fill="#fefffe" d="M 115.5,244.5 C 116.239,244.369 116.906,244.536 117.5,245C 116.563,245.692 115.897,245.525 115.5,244.5 Z"/></g>
<g><path style="opacity:0.01" fill="#fefffe" d="M 112.5,246.5 C 112.5,246.167 112.5,245.833 112.5,245.5C 115.167,245.833 115.167,246.167 112.5,246.5 Z"/></g>
<g><path style="opacity:0.006" fill="#fefffe" d="M 149.5,245.5 C 149.833,245.5 150.167,245.5 150.5,245.5C 150.672,246.492 150.338,247.158 149.5,247.5C 149.5,246.833 149.5,246.167 149.5,245.5 Z"/></g>
<g><path style="opacity:0.012" fill="#fefffe" d="M 170.5,245.5 C 171.833,246.167 171.833,246.167 170.5,245.5 Z"/></g>
<g><path style="opacity:0.01" fill="#fefffe" d="M 110.5,247.5 C 110.5,247.167 110.5,246.833 110.5,246.5C 111.167,246.5 111.833,246.5 112.5,246.5C 112.158,247.338 111.492,247.672 110.5,247.5 Z"/></g>
<g><path style="opacity:0.008" fill="#fefffe" d="M 108.5,247.5 C 109.167,247.5 109.833,247.5 110.5,247.5C 109.833,248.833 109.167,248.833 108.5,247.5 Z"/></g>
<g><path style="opacity:0.016" fill="#fefffe" d="M 148.5,247.5 C 148.833,247.5 149.167,247.5 149.5,247.5C 149.315,248.17 148.981,248.17 148.5,247.5 Z"/></g>
<g><path style="opacity:0.012" fill="#fefffe" d="M 169.5,247.5 C 170.833,248.167 170.833,248.167 169.5,247.5 Z"/></g>
<g><path style="opacity:0.012" fill="#fefffe" d="M 106.5,248.5 C 107.833,249.167 107.833,249.167 106.5,248.5 Z"/></g>
<g><path style="opacity:0.008" fill="#fefffe" d="M 50.5,249.5 C 51.525,249.897 51.6917,250.563 51,251.5C 50.5357,250.906 50.369,250.239 50.5,249.5 Z"/></g>
<g><path style="opacity:0.012" fill="#fefffe" d="M 104.5,249.5 C 105.833,250.167 105.833,250.167 104.5,249.5 Z"/></g>
<g><path style="opacity:0.012" fill="#fefffe" d="M 147.5,249.5 C 148.833,250.167 148.833,250.167 147.5,249.5 Z"/></g>
<g><path style="opacity:0.008" fill="#fefffe" d="M 168.5,249.5 C 169.833,250.167 169.833,250.167 168.5,249.5 Z"/></g>
<g><path style="opacity:0.008" fill="#fefffe" d="M 102.5,251.5 C 102.5,251.167 102.5,250.833 102.5,250.5C 103.167,250.5 103.833,250.5 104.5,250.5C 104.158,251.338 103.492,251.672 102.5,251.5 Z"/></g>
<g><path style="opacity:0.008" fill="#fefffe" d="M 130.5,256.5 C 129.378,254.712 129.211,252.712 130,250.5C 130.495,252.473 130.662,254.473 130.5,256.5 Z"/></g>
<g><path style="opacity:0.008" fill="#fefffe" d="M 146.5,250.5 C 146.833,250.5 147.167,250.5 147.5,250.5C 147.672,251.492 147.338,252.158 146.5,252.5C 146.5,251.833 146.5,251.167 146.5,250.5 Z"/></g>
<g><path style="opacity:0.008" fill="#fefffe" d="M 167.5,250.5 C 167.833,250.5 168.167,250.5 168.5,250.5C 168.672,251.492 168.338,252.158 167.5,252.5C 167.5,251.833 167.5,251.167 167.5,250.5 Z"/></g>
<g><path style="opacity:0.008" fill="#fefffe" d="M 100.5,252.5 C 100.5,252.167 100.5,251.833 100.5,251.5C 101.167,251.5 101.833,251.5 102.5,251.5C 102.158,252.338 101.492,252.672 100.5,252.5 Z"/></g>
<g><path style="opacity:0.01" fill="#fefffe" d="M 50.5,254.5 C 49.475,254.103 49.3083,253.437 50,252.5C 50.4643,253.094 50.631,253.761 50.5,254.5 Z"/></g>
<g><path style="opacity:0.008" fill="#fefffe" d="M 98.5,253.5 C 98.5,253.167 98.5,252.833 98.5,252.5C 99.1667,252.5 99.8333,252.5 100.5,252.5C 100.158,253.338 99.4916,253.672 98.5,253.5 Z"/></g>
<g><path style="opacity:0.012" fill="#fefffe" d="M 145.5,252.5 C 145.833,252.5 146.167,252.5 146.5,252.5C 146.315,253.17 145.981,253.17 145.5,252.5 Z"/></g>
<g><path style="opacity:0.012" fill="#fefffe" d="M 166.5,252.5 C 166.833,252.5 167.167,252.5 167.5,252.5C 167.315,253.17 166.981,253.17 166.5,252.5 Z"/></g>
<g><path style="opacity:0.012" fill="#fefffe" d="M 97.5,253.5 C 97.8333,253.5 98.1667,253.5 98.5,253.5C 98.3147,254.17 97.9813,254.17 97.5,253.5 Z"/></g>
<g><path style="opacity:0.008" fill="#fefffe" d="M 95.5,255.5 C 95.5,255.167 95.5,254.833 95.5,254.5C 96.1667,254.5 96.8333,254.5 97.5,254.5C 97.1583,255.338 96.4916,255.672 95.5,255.5 Z"/></g>
<g><path style="opacity:0.012" fill="#fefffe" d="M 165.5,254.5 C 166.833,255.167 166.833,255.167 165.5,254.5 Z"/></g>
<g><path style="opacity:0.012" fill="#fefffe" d="M 94.5,255.5 C 94.8333,255.5 95.1667,255.5 95.5,255.5C 95.3147,256.17 94.9813,256.17 94.5,255.5 Z"/></g>
<g><path style="opacity:0.004" fill="#fefffe" d="M 164.5,255.5 C 164.833,255.5 165.167,255.5 165.5,255.5C 165.315,256.17 164.981,256.17 164.5,255.5 Z"/></g>
<g><path style="opacity:0.016" fill="#fefffe" d="M 92.5,256.5 C 93.8333,257.167 93.8333,257.167 92.5,256.5 Z"/></g>
<g><path style="opacity:0.012" fill="#fefffe" d="M 91.5,257.5 C 91.8333,257.5 92.1667,257.5 92.5,257.5C 92.3147,258.17 91.9813,258.17 91.5,257.5 Z"/></g>
<g><path style="opacity:0.009" fill="#fefffe" d="M 128.5,257.5 C 129.573,258.251 129.74,259.251 129,260.5C 128.517,259.552 128.351,258.552 128.5,257.5 Z"/></g>
<g><path style="opacity:0.012" fill="#fefffe" d="M 141.5,257.5 C 142.833,258.167 142.833,258.167 141.5,257.5 Z"/></g>
<g><path style="opacity:0.008" fill="#fefffe" d="M 89.5,258.5 C 90.1667,258.5 90.8333,258.5 91.5,258.5C 90.8333,259.833 90.1667,259.833 89.5,258.5 Z"/></g>
<g><path style="opacity:0.008" fill="#fefffe" d="M 140.5,259.5 C 141.833,260.167 141.833,260.167 140.5,259.5 Z"/></g>
<g><path style="opacity:0.012" fill="#fefffe" d="M 139.5,260.5 C 139.833,260.5 140.167,260.5 140.5,260.5C 140.315,261.17 139.981,261.17 139.5,260.5 Z"/></g>
<g><path style="opacity:0.008" fill="#fefffe" d="M 47.5,264.5 C 46.4265,263.749 46.2599,262.749 47,261.5C 47.4828,262.448 47.6495,263.448 47.5,264.5 Z"/></g>
<g><path style="opacity:0.016" fill="#fefffe" d="M 138.5,261.5 C 138.833,261.5 139.167,261.5 139.5,261.5C 139.315,262.17 138.981,262.17 138.5,261.5 Z"/></g>
<g><path style="opacity:0.016" fill="#fefffe" d="M 84.5,262.5 C 85.8333,263.167 85.8333,263.167 84.5,262.5 Z"/></g>
<g><path style="opacity:0.016" fill="#fefffe" d="M 137.5,262.5 C 137.833,262.5 138.167,262.5 138.5,262.5C 138.315,263.17 137.981,263.17 137.5,262.5 Z"/></g>
<g><path style="opacity:0.016" fill="#fefffe" d="M 83.5,263.5 C 83.8333,263.5 84.1667,263.5 84.5,263.5C 84.3147,264.17 83.9813,264.17 83.5,263.5 Z"/></g>
<g><path style="opacity:0.012" fill="#fefffe" d="M 136.5,263.5 C 136.833,263.5 137.167,263.5 137.5,263.5C 137.315,264.17 136.981,264.17 136.5,263.5 Z"/></g>
<g><path style="opacity:0.016" fill="#fefffe" d="M 82.5,264.5 C 82.8333,264.5 83.1667,264.5 83.5,264.5C 83.3147,265.17 82.9813,265.17 82.5,264.5 Z"/></g>
<g><path style="opacity:0.008" fill="#fefffe" d="M 135.5,264.5 C 135.833,264.5 136.167,264.5 136.5,264.5C 136.315,265.17 135.981,265.17 135.5,264.5 Z"/></g>
<g><path style="opacity:0.009" fill="#fefffe" d="M 45.5,265.5 C 46.5735,266.251 46.7401,267.251 46,268.5C 45.5172,267.552 45.3505,266.552 45.5,265.5 Z"/></g>
<g><path style="opacity:0.004" fill="#fefffe" d="M 134.5,265.5 C 134.833,265.5 135.167,265.5 135.5,265.5C 135.315,266.17 134.981,266.17 134.5,265.5 Z"/></g>
<g><path style="opacity:0.008" fill="#fefffe" d="M 133.5,266.5 C 133.833,266.5 134.167,266.5 134.5,266.5C 134.315,267.17 133.981,267.17 133.5,266.5 Z"/></g>
<g><path style="opacity:0.012" fill="#fefffe" d="M 132.5,267.5 C 132.833,267.5 133.167,267.5 133.5,267.5C 133.315,268.17 132.981,268.17 132.5,267.5 Z"/></g>
<g><path style="opacity:0.016" fill="#fefffe" d="M 131.5,268.5 C 131.833,268.5 132.167,268.5 132.5,268.5C 132.315,269.17 131.981,269.17 131.5,268.5 Z"/></g>
<g><path style="opacity:0.004" fill="#fefffe" d="M 124.5,269.5 C 125.833,270.167 125.833,270.167 124.5,269.5 Z"/></g>
<g><path style="opacity:0.016" fill="#fefffe" d="M 130.5,269.5 C 130.833,269.5 131.167,269.5 131.5,269.5C 131.315,270.17 130.981,270.17 130.5,269.5 Z"/></g>
<g><path style="opacity:0.011" fill="#fefffe" d="M 44.5,270.5 C 45.5983,271.601 45.765,272.934 45,274.5C 44.51,273.207 44.3433,271.873 44.5,270.5 Z"/></g>
<g><path style="opacity:0.016" fill="#fefffe" d="M 129.5,270.5 C 129.833,270.5 130.167,270.5 130.5,270.5C 130.315,271.17 129.981,271.17 129.5,270.5 Z"/></g>
<g><path style="opacity:0.008" fill="#fefffe" d="M 128.5,271.5 C 128.833,271.5 129.167,271.5 129.5,271.5C 129.315,272.17 128.981,272.17 128.5,271.5 Z"/></g>
<g><path style="opacity:0.004" fill="#fefffe" d="M 128.5,272.5 C 127.833,273.167 127.833,273.167 128.5,272.5 Z"/></g>
<g><path style="opacity:0.016" fill="#fefffe" d="M 73.5,273.5 C 74.8333,274.167 74.8333,274.167 73.5,273.5 Z"/></g>
<g><path style="opacity:0.016" fill="#fefffe" d="M 72.5,274.5 C 72.8333,274.5 73.1667,274.5 73.5,274.5C 73.3147,275.17 72.9813,275.17 72.5,274.5 Z"/></g>
<g><path style="opacity:0.016" fill="#fefffe" d="M 71.5,275.5 C 71.8333,275.5 72.1667,275.5 72.5,275.5C 72.3147,276.17 71.9813,276.17 71.5,275.5 Z"/></g>
<g><path style="opacity:0.006" fill="#fefffe" d="M 70.5,276.5 C 70.8333,276.5 71.1667,276.5 71.5,276.5C 71.6716,277.492 71.3382,278.158 70.5,278.5C 70.5,277.833 70.5,277.167 70.5,276.5 Z"/></g>
<g><path style="opacity:0.009" fill="#fefffe" d="M 43.5,277.5 C 44.6433,280.976 44.8099,284.642 44,288.5C 43.5014,284.848 43.3347,281.182 43.5,277.5 Z"/></g>
<g><path style="opacity:0.012" fill="#fefffe" d="M 69.5,278.5 C 69.8333,278.5 70.1667,278.5 70.5,278.5C 70.3147,279.17 69.9813,279.17 69.5,278.5 Z"/></g>
<g><path style="opacity:0.016" fill="#fefffe" d="M 68.5,279.5 C 68.8333,279.5 69.1667,279.5 69.5,279.5C 69.3147,280.17 68.9813,280.17 68.5,279.5 Z"/></g>
<g><path style="opacity:0.008" fill="#fefffe" d="M 67.5,281.5 C 68.8333,282.167 68.8333,282.167 67.5,281.5 Z"/></g>
<g><path style="opacity:0.016" fill="#fefffe" d="M 66.5,282.5 C 66.8333,282.5 67.1667,282.5 67.5,282.5C 67.3147,283.17 66.9813,283.17 66.5,282.5 Z"/></g>
<g><path style="opacity:0.006" fill="#fefffe" d="M 65.5,283.5 C 65.8333,283.5 66.1667,283.5 66.5,283.5C 66.6716,284.492 66.3382,285.158 65.5,285.5C 65.5,284.833 65.5,284.167 65.5,283.5 Z"/></g>
<g><path style="opacity:0.012" fill="#fefffe" d="M 64.5,285.5 C 64.8333,285.5 65.1667,285.5 65.5,285.5C 65.3147,286.17 64.9813,286.17 64.5,285.5 Z"/></g>
<g><path style="opacity:0.012" fill="#fefffe" d="M 63.5,287.5 C 64.8333,288.167 64.8333,288.167 63.5,287.5 Z"/></g>
<g><path style="opacity:0.008" fill="#fefffe" d="M 62.5,288.5 C 62.8333,288.5 63.1667,288.5 63.5,288.5C 63.6716,289.492 63.3382,290.158 62.5,290.5C 62.5,289.833 62.5,289.167 62.5,288.5 Z"/></g>
<g><path style="opacity:0.01" fill="#fefffe" d="M 61.5,290.5 C 61.8333,290.5 62.1667,290.5 62.5,290.5C 62.6716,291.492 62.3382,292.158 61.5,292.5C 61.5,291.833 61.5,291.167 61.5,290.5 Z"/></g>
<g><path style="opacity:0.01" fill="#fefffe" d="M 60.5,292.5 C 60.8333,292.5 61.1667,292.5 61.5,292.5C 61.6716,293.492 61.3382,294.158 60.5,294.5C 60.5,293.833 60.5,293.167 60.5,292.5 Z"/></g>
<g><path style="opacity:0.01" fill="#fefffe" d="M 43.5,293.5 C 44.6433,296.976 44.8099,300.642 44,304.5C 43.5014,300.848 43.3347,297.182 43.5,293.5 Z"/></g>
<g><path style="opacity:0.008" fill="#fefffe" d="M 59.5,294.5 C 59.8333,294.5 60.1667,294.5 60.5,294.5C 60.6716,295.492 60.3382,296.158 59.5,296.5C 59.5,295.833 59.5,295.167 59.5,294.5 Z"/></g>
<g><path style="opacity:0.01" fill="#fefffe" d="M 58.5,296.5 C 58.8333,296.5 59.1667,296.5 59.5,296.5C 59.1667,299.167 58.8333,299.167 58.5,296.5 Z"/></g>
<g><path style="opacity:0.008" fill="#fefffe" d="M 57.5,299.5 C 58.8333,300.167 58.8333,300.833 57.5,301.5C 57.5,300.833 57.5,300.167 57.5,299.5 Z"/></g>
<g><path style="opacity:0.012" fill="#fefffe" d="M 56.5,301.5 C 56.8333,301.5 57.1667,301.5 57.5,301.5C 57.1667,304.167 56.8333,304.167 56.5,301.5 Z"/></g>
<g><path style="opacity:0.008" fill="#fefffe" d="M 55.5,304.5 C 56.8333,305.5 56.8333,306.5 55.5,307.5C 55.5,306.5 55.5,305.5 55.5,304.5 Z"/></g>
<g><path style="opacity:0.01" fill="#fefffe" d="M 44.5,307.5 C 45.6129,308.946 45.7796,310.613 45,312.5C 44.5065,310.866 44.3398,309.199 44.5,307.5 Z"/></g>
<g><path style="opacity:0.008" fill="#fefffe" d="M 54.5,307.5 C 54.8333,307.5 55.1667,307.5 55.5,307.5C 55.1667,311.5 54.8333,311.5 54.5,307.5 Z"/></g>
<g><path style="opacity:0.01" fill="#fefffe" d="M 53.5,311.5 C 54.525,311.897 54.6917,312.563 54,313.5C 53.5357,312.906 53.369,312.239 53.5,311.5 Z"/></g>
<g><path style="opacity:0.01" fill="#fefffe" d="M 46.5,313.5 C 46.6567,314.873 46.49,316.207 46,317.5C 45.235,315.934 45.4017,314.601 46.5,313.5 Z"/></g>
<g><path style="opacity:0.01" fill="#fefffe" d="M 52.5,315.5 C 53.5735,316.251 53.7401,317.251 53,318.5C 52.5172,317.552 52.3505,316.552 52.5,315.5 Z"/></g>
<g><path style="opacity:0.01" fill="#fefffe" d="M 47.5,318.5 C 47.6495,319.552 47.4828,320.552 47,321.5C 46.2599,320.251 46.4265,319.251 47.5,318.5 Z"/></g>
<g><path style="opacity:0.007" fill="#fefffe" d="M 51.5,319.5 C 52.5735,320.251 52.7401,321.251 52,322.5C 51.5172,321.552 51.3505,320.552 51.5,319.5 Z"/></g>
<g><path style="opacity:0.004" fill="#fefffe" d="M 50.5,324.5 C 49.8333,323.167 49.8333,323.167 50.5,324.5 Z"/></g>
</svg>
