<svg
  width="46"
  height="35"
  viewBox="0 0 46 35"
  xmlns="http://www.w3.org/2000/svg"
>
<path
    d="M38.9476 2.95598C38.9349 2.93124 38.9137 2.91185 38.8879 2.90129C35.9096 1.53478 32.7665 0.560352 29.5375 0.00239013C29.5082 -0.00306384 29.4778 0.000870717 29.4509 0.0136342C29.4239 0.0263977 29.4016 0.0473404 29.3873 0.0734838C28.9593 0.850271 28.5708 1.64816 28.2232 2.46411C24.7425 1.93573 21.2019 1.93573 17.7212 2.46411C17.3713 1.64609 16.9766 0.848 16.5388 0.0734838C16.5238 0.0479085 16.5014 0.0274482 16.4746 0.0147676C16.4478 0.00208701 16.4178 -0.00222614 16.3885 0.00239013C13.1591 0.559181 10.0158 1.53368 7.03786 2.90137C7.01237 2.91218 6.99086 2.93063 6.9763 2.95418C1.02092 11.8478 -0.610478 20.5227 0.189832 29.0902C0.192084 29.1112 0.198535 29.1315 0.208802 29.1499C0.219069 29.1684 0.232943 29.1846 0.249598 29.1976C3.71736 31.7652 7.59609 33.7251 11.7203 34.9936C11.7493 35.0023 11.7803 35.0019 11.8091 34.9925C11.838 34.983 11.8632 34.965 11.8814 34.9408C12.7672 33.7355 13.5521 32.4593 14.2281 31.125C14.2374 31.1067 14.2427 31.0866 14.2436 31.0661C14.2446 31.0456 14.2412 31.0251 14.2337 31.006C14.2262 30.9869 14.2147 30.9696 14.2 30.9553C14.1853 30.9409 14.1677 30.9299 14.1485 30.9228C12.9108 30.4492 11.7126 29.8784 10.565 29.2155C10.5442 29.2033 10.5267 29.1861 10.5141 29.1655C10.5014 29.1448 10.4941 29.1214 10.4927 29.0973C10.4912 29.0732 10.4958 29.049 10.5059 29.0271C10.516 29.0051 10.5313 28.986 10.5506 28.9713C10.7914 28.7909 11.0323 28.6033 11.2622 28.4138C11.2827 28.3969 11.3074 28.3861 11.3336 28.3826C11.3598 28.3791 11.3865 28.3829 11.4107 28.3938C18.9285 31.8248 27.0677 31.8248 34.4965 28.3938C34.5207 28.3822 34.5477 28.3778 34.5743 28.3811C34.6009 28.3843 34.6261 28.395 34.6469 28.412C34.8769 28.6015 35.1177 28.7909 35.3603 28.9713C35.3796 28.9858 35.3951 29.0048 35.4054 29.0267C35.4157 29.0486 35.4204 29.0727 35.4191 29.0968C35.4179 29.121 35.4107 29.1444 35.3982 29.1651C35.3858 29.1858 35.3684 29.2031 35.3476 29.2155C34.2027 29.8839 33.0034 30.4545 31.7625 30.921C31.7432 30.9283 31.7257 30.9397 31.7111 30.9542C31.6965 30.9688 31.6852 30.9863 31.6778 31.0055C31.6704 31.0248 31.6672 31.0454 31.6683 31.066C31.6695 31.0866 31.6749 31.1067 31.6844 31.125C32.3717 32.4519 33.1554 33.7265 34.0292 34.9387C34.0469 34.9635 34.072 34.9822 34.101 34.992C34.1299 35.0018 34.1612 35.0023 34.1904 34.9934C38.3219 33.7291 42.2075 31.7691 45.6796 29.1976C45.6965 29.1852 45.7105 29.1694 45.7209 29.1512C45.7312 29.133 45.7375 29.1128 45.7393 29.092C46.6974 19.187 44.1353 10.5832 38.9476 2.95598ZM15.3508 23.8734C13.0874 23.8734 11.2224 21.7963 11.2224 19.2454C11.2224 16.6945 13.0512 14.6172 15.3508 14.6172C17.6684 14.6172 19.5153 16.7125 19.4792 19.2453C19.4792 21.7963 17.6503 23.8734 15.3508 23.8734ZM30.6148 23.8734C28.3515 23.8734 26.4865 21.7963 26.4865 19.2454C26.4865 16.6945 28.3153 14.6172 30.6148 14.6172C32.9326 14.6172 34.7794 16.7125 34.7433 19.2453C34.7433 21.7963 32.9326 23.8734 30.6148 23.8734Z"
  />
</svg>
