<svg width="42" height="41" viewBox="0 0 42 41" fill="none" xmlns="http://www.w3.org/2000/svg">
<path d="M14.6906 32.7079C14.6906 32.8734 14.5004 33.0057 14.2605 33.0057C13.9876 33.0305 13.7973 32.8982 13.7973 32.7079C13.7973 32.5425 13.9876 32.4102 14.2274 32.4102C14.4756 32.3854 14.6906 32.5177 14.6906 32.7079ZM12.1183 32.3357C12.0604 32.5012 12.2258 32.6914 12.4739 32.741C12.689 32.8237 12.9371 32.741 12.9868 32.5756C13.0364 32.4102 12.8792 32.2199 12.6311 32.1455C12.4161 32.0876 12.1762 32.1703 12.1183 32.3357ZM15.7741 32.1951C15.5343 32.253 15.3689 32.4102 15.3937 32.6004C15.4185 32.7658 15.6335 32.8734 15.8817 32.8155C16.1215 32.7576 16.287 32.6004 16.2621 32.435C16.2373 32.2778 16.014 32.1703 15.7741 32.1951ZM21.2166 0.5C9.74446 0.5 0.96875 9.20954 0.96875 20.6817C0.96875 29.8544 6.74203 37.7037 14.9884 40.4663C16.0471 40.6565 16.4193 40.0031 16.4193 39.4655C16.4193 38.9527 16.3945 36.1239 16.3945 34.387C16.3945 34.387 10.6047 35.6277 9.3888 31.9222C9.3888 31.9222 8.44589 29.5153 7.08942 28.8949C7.08942 28.8949 5.19532 27.5964 7.22176 27.6212C7.22176 27.6212 9.28128 27.7866 10.4144 29.7551C12.2258 32.9478 15.2613 32.0297 16.4441 31.4838C16.6343 30.1604 17.172 29.2423 17.7675 28.6964C13.1439 28.1836 8.47897 27.5136 8.47897 19.5568C8.47897 17.2822 9.10758 16.1408 10.431 14.6851C10.2159 14.1474 9.51287 11.9308 10.646 9.06893C12.3747 8.53131 16.3531 11.3021 16.3531 11.3021C18.0074 10.839 19.7857 10.5991 21.5474 10.5991C23.3092 10.5991 25.0875 10.839 26.7417 11.3021C26.7417 11.3021 30.7202 8.52304 32.4488 9.06893C33.582 11.939 32.8789 14.1474 32.6639 14.6851C33.9873 16.1491 34.7978 17.2905 34.7978 19.5568C34.7978 27.5385 29.9261 28.1753 25.3025 28.6964C26.0635 29.3498 26.7086 30.5905 26.7086 32.5342C26.7086 35.3216 26.6838 38.7707 26.6838 39.4489C26.6838 39.9866 27.0643 40.64 28.1147 40.4498C36.3859 37.7037 41.9938 29.8544 41.9938 20.6817C41.9938 9.20954 32.6887 0.5 21.2166 0.5ZM9.00833 29.0273C8.9008 29.11 8.92562 29.3002 9.06623 29.4574C9.19857 29.5897 9.3888 29.6476 9.49633 29.5401C9.60385 29.4574 9.57904 29.2671 9.43843 29.11C9.30609 28.9776 9.11585 28.9197 9.00833 29.0273ZM8.11504 28.3573C8.05714 28.4648 8.13985 28.5972 8.30528 28.6799C8.43762 28.7626 8.60304 28.7378 8.66094 28.622C8.71884 28.5145 8.63613 28.3821 8.4707 28.2994C8.30528 28.2498 8.17294 28.2746 8.11504 28.3573ZM10.7949 31.3018C10.6626 31.4094 10.7122 31.6575 10.9024 31.8147C11.0927 32.0049 11.3325 32.0297 11.4401 31.8974C11.5476 31.7898 11.498 31.5417 11.3325 31.3846C11.1506 31.1943 10.9024 31.1695 10.7949 31.3018ZM9.85199 30.086C9.71965 30.1687 9.71965 30.3837 9.85199 30.574C9.98433 30.7642 10.2076 30.8469 10.3152 30.7642C10.4475 30.6567 10.4475 30.4416 10.3152 30.2514C10.1994 30.0612 9.98433 29.9785 9.85199 30.086Z" fill="white" fill-opacity="0.6"/>
</svg>
