<svg width="46" height="37" viewBox="0 0 46 37" fill="none" xmlns="http://www.w3.org/2000/svg">
<path d="M40.7375 9.47184C40.7656 9.86557 40.7656 10.2594 40.7656 10.6531C40.7656 22.6624 31.6251 36.5 14.9188 36.5C9.77186 36.5 4.99064 35.0093 0.96875 32.4219C1.70003 32.5062 2.40308 32.5344 3.16249 32.5344C7.4093 32.5344 11.3187 31.1 14.4406 28.6532C10.4469 28.5688 7.09998 25.9531 5.94684 22.3531C6.50938 22.4374 7.07184 22.4937 7.66253 22.4937C8.47812 22.4937 9.29381 22.3812 10.0531 22.1844C5.89065 21.3406 2.76868 17.6844 2.76868 13.2687V13.1563C3.97801 13.8313 5.38437 14.2531 6.87489 14.3093C4.42801 12.678 2.82495 9.89371 2.82495 6.74369C2.82495 5.05622 3.27487 3.50934 4.06241 2.15933C8.53431 7.67183 15.2562 11.2718 22.7936 11.6656C22.6531 10.9906 22.5686 10.2875 22.5686 9.58439C22.5686 4.57808 26.6187 0.5 31.653 0.5C34.2686 0.5 36.6311 1.59687 38.2905 3.36875C40.3436 2.97502 42.3123 2.2156 44.0562 1.175C43.3811 3.28443 41.9467 5.0563 40.0624 6.18123C41.8906 5.98445 43.6624 5.47808 45.2936 4.77503C44.0563 6.57496 42.5094 8.17802 40.7375 9.47184Z" fill="white" fill-opacity="0.6"/>
</svg>
