<svg width="51" height="36" viewBox="0 0 51 36" fill="none" xmlns="http://www.w3.org/2000/svg">
<path d="M49.924 6.00076C49.3489 3.83554 47.6546 2.13028 45.5034 1.55157C41.6042 0.5 25.9687 0.5 25.9687 0.5C25.9687 0.5 10.3334 0.5 6.43407 1.55157C4.28286 2.13037 2.58859 3.83554 2.01355 6.00076C0.96875 9.92534 0.96875 18.1136 0.96875 18.1136C0.96875 18.1136 0.96875 26.3019 2.01355 30.2265C2.58859 32.3917 4.28286 34.0259 6.43407 34.6046C10.3334 35.6562 25.9687 35.6562 25.9687 35.6562C25.9687 35.6562 41.6041 35.6562 45.5034 34.6046C47.6546 34.0259 49.3489 32.3917 49.924 30.2265C50.9688 26.3019 50.9688 18.1136 50.9688 18.1136C50.9688 18.1136 50.9688 9.92534 49.924 6.00076ZM20.8551 25.548V10.6793L33.9232 18.1138L20.8551 25.548Z" fill="white" fill-opacity="0.6"/>
</svg>
